<?xml version="1.0" encoding="UTF-8"?>
<svg version="1.1" viewBox="0 0 746 644" xmlns="http://www.w3.org/2000/svg" xmlns:xlink="http://www.w3.org/1999/xlink">
<title>Artboard</title>
<defs>
<path id="n" d="m111.08 0-0.71704 11.564c-12.629 2.5888-20.995 4.8875-25.099 6.896-6.1559 3.0127-13.809 2.9607-16.226 2.9867-2.4168 0.026007-5.8249 7.553-2.9125 7.553h53.276c5.6687-0.75785 8.5031-3.2755 8.5031-7.553s1.3667-9.9252 4.1001-16.943l-20.925-4.5039z"/>
<filter id="ae" x="-6.7%" y="-15.9%" width="113.7%" height="131.4%">
<feGaussianBlur in="SourceAlpha" result="shadowBlurInner1" stdDeviation="2"/>
<feOffset dx="0" dy="4" in="shadowBlurInner1" result="shadowOffsetInner1"/>
<feComposite in="shadowOffsetInner1" in2="SourceAlpha" k2="-1" k3="1" operator="arithmetic" result="shadowInnerInner1"/>
<feColorMatrix in="shadowInnerInner1" values="0 0 0 0 0   0 0 0 0 0   0 0 0 0 0  0 0 0 0.5 0"/>
</filter>
<path id="f" d="m6.1548 3.1532c-0.59226 0.70785-5.1548 8.3973-5.1548 10.578 0 1.4541 0.78229 3.7183 2.3469 6.7926l8.3023 10.476h17.603c11.285-0.93815 17.259-1.7999 17.922-2.5854 0.99385-1.1782 1.2044-3.789 0-4.3334-1.2044-0.54444-13.71-5.6624-14.95-6.3375-1.2399-0.67502-13.381-4.3312-12.508-5.5717 0.2318-0.32945-3.2804-6.8688-3.2804-8.1226 0-3.6515-9.8453-1.4161-10.28-0.89628z"/>
<filter id="u" x="-7.4%" y="-12.1%" width="114.9%" height="124.1%">
<feGaussianBlur in="SourceAlpha" result="shadowBlurInner1" stdDeviation="1.5"/>
<feOffset dx="0" dy="3" in="shadowBlurInner1" result="shadowOffsetInner1"/>
<feComposite in="shadowOffsetInner1" in2="SourceAlpha" k2="-1" k3="1" operator="arithmetic" result="shadowInnerInner1"/>
<feColorMatrix in="shadowInnerInner1" values="0 0 0 0 0   0 0 0 0 0   0 0 0 0 0  0 0 0 0.5 0"/>
</filter>
<path id="c" d="m178.22 43.988c3.5266 2.8657 10.373 10.995 10.373 13.204s2.1019 10.776 3.5802 10.776l0.093262-3.563e-4c1.3101-0.0086676 9.0241-0.17552 23.142-0.50056 3.2886 0.72266 4.9503 2.0035 4.9851 3.8426 0.052207 2.7586 2.0309 8.601-1.4771 9.4566s-5.3143 2.7285-5.3143 4.1288c0 1.4003-1.1998 4.6414-3.8284 4.6414-2.6286 0-6.6255 1.2482-12.113 1.2482h-7.8452l-17.377 5.6677c1.2443 15.103 1.879 27.6 1.9039 37.493v1.1983c-0.024887 9.68-0.6595 16.755-1.9039 21.225-3.8092 13.684-19.517 29.796-34.382 29.796-9.9102 0-16.78-0.86946-20.608-2.6084l-1.1507 93.444h-73.191c-17.781-14.703-28.247-25.491-31.4-32.365-1.7026-3.7121-3.9106-9.541-5.9498-15.705l-0.33818-1.0302c-3.4759-10.671-6.3397-22.043-5.1463-25.016 0.90468-2.2537 8.7605-14.085 16.833-26.324l1.0313-1.5639 1.0305-1.5641c8.4043-12.763 16.422-25.12 16.422-26.681 0-2.1229 16.131 1.0833 48.392 9.6186l50.02 5.7231-2.5017 9.5316c9.8169-1.1001 16.508-4.2773 20.072-9.5316 5.3466-7.8814 8.2832-15.619 7.3914-31.257-0.59452-10.425-1.3536-22.224-2.2774-35.394-8.9755-4.1412-14.181-8.0594-15.616-11.755-2.1532-5.543-3.0126-4.4137-3.0126-10.95s-1.2285-9.9375 3.0126-11.719c4.2411-1.7816 8.333-3.2337 10.502-1.6168s0.5315 8.4434 1.3504 10.89 9.2678 10.476 13.038 10.476 3.4942-0.90504 6.0108-4.4676c2.5165-3.5625 6.3477-2.524 3.1738-8.3308-3.1738-5.8068-5.3858-11.442-10.296-10.467-0.20896 0.041484-0.41492 0.087349-0.61776 0.1363l-0.30189 0.075581c-4.3929 1.1377-7.2427 3.4555-7.2427-6.8461 0-11.004 18.008-9.7442 21.534-6.8785zm-148.75 144.08c-7.3904 9.7816-10.394 16.455-9.0109 20.02 2.0748 5.3473 12.295 30.98 24.155 45.946 7.9068 9.9775 19.355-8.0209 34.344-53.995l-49.488-11.971z"/>
<filter id="t" x="-2.7%" y="-2.6%" width="105.4%" height="105.1%">
<feGaussianBlur in="SourceAlpha" result="shadowBlurInner1" stdDeviation="4.5"/>
<feOffset dx="2" dy="1" in="shadowBlurInner1" result="shadowOffsetInner1"/>
<feComposite in="shadowOffsetInner1" in2="SourceAlpha" k2="-1" k3="1" operator="arithmetic" result="shadowInnerInner1"/>
<feColorMatrix in="shadowInnerInner1" values="0 0 0 0 0   0 0 0 0 0   0 0 0 0 0  0 0 0 0.5 0"/>
</filter>
<path id="b" d="m35.513 146.11c3.4695 2.623 22.226 30.891 39.691 30.891 11.644 0 27.552-3.4672 47.726-10.402l23.798-3.3012c-2.0127 12.598-2.0127 19.972 0 22.12 1.912 2.041-6.2817 5.6841-24.581 10.929l-1.1692 0.33342c-0.59132 0.16777-1.1927 0.33714-1.8042 0.50811l-1.0965 66.388c7.3363 15.547 28.104 114.77 25.735 128.73-2.5343 14.945-13.356 0-24.488 2.3559-11.132 2.3559-17.031 5.0094-22.255 5.0094-5.2243 0-16.243-3.5893-21.454-5.0094-5.2111-1.4201-18.509 1.4201-23.88 5.0094-5.3704 3.5893-35.891-0.06899-28.624-11.726 4.7018-7.5424 11.221-47.438 19.558-119.69l-3.5863-72.104c-3.8194 0.075024-7.3588 0.11499-10.618 0.1199l-1.3798-4.1e-5c-19.077-0.030619-28.077-1.3232-26.999-3.8778 1.9247-4.5618 31.957-48.916 35.427-46.293z"/>
<filter id="s" x="-4.8%" y="-2.7%" width="109.5%" height="105.5%">
<feGaussianBlur in="SourceAlpha" result="shadowBlurInner1" stdDeviation="3.5"/>
<feOffset dx="6" dy="1" in="shadowBlurInner1" result="shadowOffsetInner1"/>
<feComposite in="shadowOffsetInner1" in2="SourceAlpha" k2="-1" k3="1" operator="arithmetic" result="shadowInnerInner1"/>
<feColorMatrix in="shadowInnerInner1" values="0 0 0 0 0   0 0 0 0 0   0 0 0 0 0  0 0 0 0.5 0"/>
</filter>
<path id="a" d="m87.411 29.299v-17.189c-5.0533-6.747-9.2226-10.12-12.508-10.12-4.9279 0-7.4682 1.4067-10.113 0-2.6448-1.4067-4.6056-2.8134-7.3489-1.4067s-4.2956 0.041219-7.0289 1.4067c-2.7333 1.3655-11.728 4.8858-16.27 6.3373-4.5425 1.4514-13.892 9.2766-16.146 13.253s-4.0441 5.8899-4.0441 7.7193 1.9214 2.3886 0 4.057c-1.9214 1.6684-2.8481 1.4568-1.8558 2.4506 0.99234 0.9938 0.67354 1.9174-0.87428 3.8433-1.5478 1.9259-1.5461 4.7347-2.6229 7.268-1.0767 2.5333-1.2997 5.3358 0 6.1628 1.2997 0.82695 6.2734 2.3833 5.3529 4.5117s-0.10722 4.0522-2.7301 6.0679c-2.6229 2.0158-11.222 13.597-11.222 18.776 0 1.0874 0.10519 2.1248 0.32128 3.0935 0.81313 3.6452 3.1965 6.318 7.4543 7.0203 5.3893 0.88906 19.431-1.3807 18.677 0.91306-0.75455 2.2938-4.8188 8.9696-6.2472 10.069-1.4285 1.0992-2.2088 2.1974-2.2088 4.2562s-0.46476 9.162 0.872 9.924c1.3368 0.76193 10.896 13.244 14.274 10.103s-2.5214 9.8545-1.7612 13.579 5.5565 17.788 17.4 21.449 20.422 0.20336 21.607-0.67508c1.185-0.87844 2.5599 4.6735 4.5156 4.6735 1.9557 0 6.8825 1.7526 8.5415 1.7526 1.659 0 5.0414-2.4721 6.5565-4.1115 1.5151-1.6395 8.2367 15.236 21.952 12.13 13.715-3.1063 28.309-12.786 26.963-24.002-1.3459-11.216-5.5297-12.981-2.7649-15.74 2.7649-2.7592 4.2625-8.0889 2.7649-9.0554s-5.5297-2.0103-2.7649-4.4329c2.7649-2.4227 6.7182-18.349 2.7649-22.148-3.9534-3.7991-8.8905-9.5973-13.116-8.6842-4.2254 0.91306-9.7078 0.91306-11.777 0.91306s-5.3142 2.5057-6.5489 2.5057c-1.2346 0-9.3986-3.4188-7.9049-6.9989 0.99581-2.3867-6.5683-7.4339-22.692-15.141l-13.899 8.6077-10.107-1.3664-5.266-1.5394-2.6898-1.9333-12.713-12.86c-1.0867-5.8378-0.77331-9.24 0.94023-10.206 2.5703-1.4497 6.4461-0.70726 4.932-4.1599s-1.1703-4.9374-3.9317-4.195c-2.7614 0.74239-7.69-0.025735-7.69-3.2757s8.4177-10.327 10.02-11.964c1.602-1.6372 6.8947-5.2252 6.8947-7.2908 0-2.0657 20.984-7.4067 22.562-7.4067h18.194l3.2884 13.06z"/>
<filter id="aj" x="-3.6%" y="-2.8%" width="107.1%" height="105.7%">
<feGaussianBlur in="SourceAlpha" result="shadowBlurInner1" stdDeviation="2.5"/>
<feOffset dx="4" dy="1" in="shadowBlurInner1" result="shadowOffsetInner1"/>
<feComposite in="shadowOffsetInner1" in2="SourceAlpha" k2="-1" k3="1" operator="arithmetic" result="shadowInnerInner1"/>
<feColorMatrix in="shadowInnerInner1" values="0 0 0 0 0   0 0 0 0 0   0 0 0 0 0  0 0 0 0.5 0"/>
</filter>
<path id="m" d="m74.52 81.46c0-3.2726 6.9003-2.4619 7.6228-1.6831s-0.53052 3.2589 3.6902 4.9557 4.4345 4.2375 6.1862 4.2375 19.937 0.66237 18.15-13.332c-1.787-13.994-15.437-11.17-16.255-8.8535-0.81779 2.317 0.070364 4.3601-1.8951 4.3601-1.9655 0-1.9655-7.4848-7.3522-8.5149s-17.727-0.75132-20.885 8.1976c-3.1584 8.9489-6.8194 0-7.9516 0s-14.138 2.2787-11.182 13.905 9.3502 15.268 17.497 12.703c8.1469-2.5649 12.374-12.703 12.374-15.975z"/>
<filter id="ai" x="-7.6%" y="-14.1%" width="115.1%" height="128%">
<feGaussianBlur in="SourceAlpha" result="shadowBlurInner1" stdDeviation="3"/>
<feOffset dx="3" dy="0" in="shadowBlurInner1" result="shadowOffsetInner1"/>
<feComposite in="shadowOffsetInner1" in2="SourceAlpha" k2="-1" k3="1" operator="arithmetic" result="shadowInnerInner1"/>
<feColorMatrix in="shadowInnerInner1" values="0 0 0 0 0   0 0 0 0 0   0 0 0 0 0  0 0 0 0.5 0"/>
</filter>
<filter id="ah">
<feColorMatrix in="SourceGraphic" values="0 0 0 0 0.000000 0 0 0 0 0.000000 0 0 0 0 0.000000 0 0 0 1.000000 0"/>
</filter>
<radialGradient id="r" r="613.89%" gradientTransform="translate(.5 .5) scale(.081448 1) rotate(180) scale(1 .056945) translate(-.5 -.5)">
<stop stop-opacity=".43409" offset="0"/>
<stop stop-opacity="0" offset="1"/>
</radialGradient>
<radialGradient id="q" r="356.45%" gradientTransform="translate(.5 .5) scale(.14027 1) rotate(180) scale(1 .10346) translate(-.5 -.5)">
<stop stop-opacity=".43409" offset="0"/>
<stop stop-opacity="0" offset="1"/>
</radialGradient>
<polygon id="l" points="36.595 -1.4747e-14 36.595 17.935 2.927 40.585 1.8551 47.385 19.225 48.286 47.452 43.517 62.145 38.332 58.272 27.86 56.657 -1.4768e-14 52.515 0"/>
<filter id="ag" x="-8.4%" y="-10.4%" width="117%" height="120.7%">
<feGaussianBlur in="SourceAlpha" result="shadowBlurInner1" stdDeviation="2"/>
<feOffset dx="0" dy="5" in="shadowBlurInner1" result="shadowOffsetInner1"/>
<feComposite in="shadowOffsetInner1" in2="SourceAlpha" k2="-1" k3="1" operator="arithmetic" result="shadowInnerInner1"/>
<feColorMatrix in="shadowInnerInner1" values="0 0 0 0 0   0 0 0 0 0   0 0 0 0 0  0 0 0 0.5 0"/>
</filter>
<polygon id="k" points="38.898 -4.2337e-14 37.692 21.22 3.0058 43.931 1.863 51.291 20.381 52.267 50.473 47.105 66.137 41.492 62.008 30.157 62.008 -3.3632e-14 55.871 -2.6379e-14"/>
<filter id="af" x="-7.9%" y="-9.6%" width="115.9%" height="119.1%">
<feGaussianBlur in="SourceAlpha" result="shadowBlurInner1" stdDeviation="2"/>
<feOffset dx="0" dy="5" in="shadowBlurInner1" result="shadowOffsetInner1"/>
<feComposite in="shadowOffsetInner1" in2="SourceAlpha" k2="-1" k3="1" operator="arithmetic" result="shadowInnerInner1"/>
<feColorMatrix in="shadowInnerInner1" values="0 0 0 0 0   0 0 0 0 0   0 0 0 0 0  0 0 0 0.5 0"/>
</filter>
<path id="j" d="m147.12 154.76c-3.1523 18.416-11.706 33.127-25.659 44.134-20.931 16.511-36.107-15.747-43.794 1.3978-7.6863 17.145 0 57.689-8.87 69.37-8.87 11.681 11.009 5.1885 25.023 1.2292 14.014-3.9593 16.812 1.8376 24.153 3.9593 7.341 2.1217 10.573 0.47011 20.49-2.3592 9.917-2.8293 24.183-5.6586 29.878-2.8293 5.6948 2.8293 22.205 14.66 33.405 9.5651s-1.4029-34.223-3.0479-47.159c-1.645-12.936-6.2432-34.672-10.814-45.084-4.5709-10.412-26.936-48.327-32.097-45.82-3.4413 1.6714-6.3298 6.2036-8.6657 13.596z"/>
<filter id="ad" x="-6.1%" y="-6.1%" width="112.2%" height="112.2%">
<feGaussianBlur in="SourceAlpha" result="shadowBlurInner1" stdDeviation="6.5"/>
<feOffset dx="3" dy="3" in="shadowBlurInner1" result="shadowOffsetInner1"/>
<feComposite in="shadowOffsetInner1" in2="SourceAlpha" k2="-1" k3="1" operator="arithmetic" result="shadowInnerInner1"/>
<feColorMatrix in="shadowInnerInner1" values="0 0 0 0 0   0 0 0 0 0   0 0 0 0 0  0 0 0 0.5 0"/>
</filter>
<path id="i" d="m145.14 157.44c8.7855 15.801 13.178 28.904 13.178 39.308 0 15.606 0.9589 29.916-1.4378 29.916s-0.52081 3.8385 4.5835 7.6958c5.1044 3.8573 14.796 10.293 21.505 8.6671 6.7092-1.6263 19.798-10.839 23.817-20.756s1.9612-68.456-26.474-76.87c-18.957-5.6092-35.791-3.926-50.504 5.0496-15.009 8.55-22.621 12.825-22.835 12.825h-24.522c-6.9735-1.5417-13.153-2.3125-18.539-2.3125h-19.806c-2.5961 0-18.571-8.1857-22.939-8.1857s-9.2631 4.663-6.8153 4.663 5.2325 3.5227 2.6162 3.5227c-2.6162 0-10.899-2.3125-10.899 0s-0.64942 9.1385 2.038 11.207c1.7916 1.3787 4.7452 4.0394 8.8608 7.982 10.622 0 17.297 0.35212 20.026 1.0564 4.0933 1.0564 12.771 3.3052 18.839 3.3052 6.0679 0 15.511 0.97139 15.511 3.166 0 2.1946 7.0824 14.937 9.161 18.281 2.0786 3.3441 19.187 10.279 40.959-6.0642 14.514-10.896 22.406-25.048 23.676-42.456z"/>
<filter id="ac" x="-2.7%" y="-5.4%" width="105.4%" height="110.9%">
<feGaussianBlur in="SourceAlpha" result="shadowBlurInner1" stdDeviation="4"/>
<feOffset dx="2" dy="1" in="shadowBlurInner1" result="shadowOffsetInner1"/>
<feComposite in="shadowOffsetInner1" in2="SourceAlpha" k2="-1" k3="1" operator="arithmetic" result="shadowInnerInner1"/>
<feColorMatrix in="shadowInnerInner1" values="0 0 0 0 0   0 0 0 0 0   0 0 0 0 0  0 0 0 0.5 0"/>
</filter>
<path id="h" d="m64.17 89.072c-1.4868 16.175-1.5729 24.879-0.25818 26.112 1.9721 1.8494-4.3287 7.8771-7.4607 10.69-3.132 2.8126 6.3494 23.991 12.367 28.269 6.0173 4.2781 8.852 6.0495 8.852 9.961s-4.9133 14.375 0 16.043c4.9133 1.6684 46.913 8.2335 50.913 4.951 4-3.2826 4.2799-6.9684 6.1399-8.467 1.8601-1.4986 4.8653-1.9844 4.8653-4.0554 0-2.071-2.2984-5.2885 1.9059-5.2885s6.4837-3.4541 7.8081-8.2992c1.3244-4.8451 6.8204-10.589 12.896-12.454 6.0757-1.8658 15.936 1.9647 20.712 1.9647 4.7758 0 24.987-12.458 26.105-16.005s-1.7023-18.927 1.0767-21.086c2.779-2.1597 16.594-19.694 16.359-29.074-0.23472-9.3805-4.5498-11.42-7.1495-17.267s-5.5311-12.127-1.0989-18.738c4.4322-6.6113 1.8594-8.2802-3.1256-12.027-4.985-3.7464-6.5471-4.7618-8.8614-10.875s-32.195-24.305-59.671-23.392c-27.476 0.91237-38.668 1.7388-46.745 6.4445-8.0778 4.7056-11.31 15.854-8.6321 16.948s15.971-9.5082 48.422-1.2295 34.294 31.51 32.451 40.042c-1.8435 8.5318-7.1452 7.9037-7.1452 10.714s-2.9605 35.791-6.2221 38.455c-3.2616 2.6632-10.33 4.8259-15.308 9.6465-3.3184 3.2137-7.3377 7.027-12.058 11.44l-16.692-12.699-20.769 2.2398-13.341 3.8404-12.793-9.2675-3.5417-27.534z"/>
<filter id="ab" x="-3.8%" y="-3.5%" width="107.6%" height="107%">
<feMorphology in="SourceAlpha" radius="2" result="shadowSpreadInner1"/>
<feGaussianBlur in="shadowSpreadInner1" result="shadowBlurInner1" stdDeviation="3"/>
<feOffset dx="4" dy="3" in="shadowBlurInner1" result="shadowOffsetInner1"/>
<feComposite in="shadowOffsetInner1" in2="SourceAlpha" k2="-1" k3="1" operator="arithmetic" result="shadowInnerInner1"/>
<feColorMatrix in="shadowInnerInner1" values="0 0 0 0 0.157158009   0 0 0 0 0.141807926   0 0 0 0 0.141807926  0 0 0 0.5 0"/>
</filter>
<ellipse id="p" cx="78.951" cy="91.533" rx="3.5" ry="5.5"/>
<filter id="aa" x="-28.6%" y="-18.2%" width="157.1%" height="136.4%">
<feGaussianBlur in="SourceAlpha" result="shadowBlurInner1" stdDeviation="1.5"/>
<feOffset dx="0" dy="1" in="shadowBlurInner1" result="shadowOffsetInner1"/>
<feComposite in="shadowOffsetInner1" in2="SourceAlpha" k2="-1" k3="1" operator="arithmetic" result="shadowInnerInner1"/>
<feColorMatrix in="shadowInnerInner1" values="0 0 0 0 0   0 0 0 0 0   0 0 0 0 0  0 0 0 0.5 0"/>
</filter>
<path id="g" d="m114.61 77.801c0.58728 0 2.3965 4.0847 8.1168 4.5311 3.8136 0.29754 13.388 0.29754 28.722 0v-14.956l-4.9042-5.1386c-13.688-0.74271-21.302-0.74271-22.841 0-1.5389 0.74271-4.5703 3.7338-9.0941 8.9732-0.39152 4.3935-0.39152 6.5903 0 6.5903z"/>
<filter id="z" x="-10.8%" y="-19.2%" width="121.6%" height="138.3%">
<feGaussianBlur in="SourceAlpha" result="shadowBlurInner1" stdDeviation="3"/>
<feOffset dx="0" dy="1" in="shadowBlurInner1" result="shadowOffsetInner1"/>
<feComposite in="shadowOffsetInner1" in2="SourceAlpha" k2="-1" k3="1" operator="arithmetic" result="shadowInnerInner1"/>
<feColorMatrix in="shadowInnerInner1" values="0 0 0 0 0   0 0 0 0 0   0 0 0 0 0  0 0 0 0.5 0"/>
</filter>
<path id="e" d="m64.877 82.778c12.357 0.018579 19.853-0.3308 22.486-1.0482 3.9494-1.076 6.4825-1.5831 6.4825-4.1418 0-2.5587-1.0938-5.6592-1.0938-6.6979 0-1.0387-0.304-4.3801-2.335-4.3801-2.031 0-7.5905-1.4451-12.778-1.4451h-11.013l-1.7484 17.713z"/>
<filter id="y" x="-14%" y="-22.6%" width="127.8%" height="145.2%">
<feGaussianBlur in="SourceAlpha" result="shadowBlurInner1" stdDeviation="3"/>
<feOffset dx="0" dy="1" in="shadowBlurInner1" result="shadowOffsetInner1"/>
<feComposite in="shadowOffsetInner1" in2="SourceAlpha" k2="-1" k3="1" operator="arithmetic" result="shadowInnerInner1"/>
<feColorMatrix in="shadowInnerInner1" values="0 0 0 0 0   0 0 0 0 0   0 0 0 0 0  0 0 0 0.5 0"/>
</filter>
<path id="d" d="m71.344 128.95 2.0991 16.451c11.695-3.9784 19.185-7.4327 22.47-10.363 4.9264-4.3952 6.5998-6.5875 4.9063-8.7195-1.6935-2.132 8.6349-1.5277 10.325 0 1.6899 1.5277 8.8605 13.915 13.084 16.134 4.2237 2.2193 6.6694 3.4182 8.2237 2.2193 1.5543-1.1989 11.788-16.489 9.0431-18.354-2.7447-1.8648-6.7334 2.6318-8.4608 2.6318-1.7274 0-9.0068-12.832-10.406-12.832s-2.342 1.8397-2.342 0.91983c0-0.91983 1.0512-4.2772-2.3103-4.2772s-31.505-1.8497-32.98 1.9463-0.59779 3.7379-2.5444 5.5344c-1.9466 1.7965-3.8565 3.8236-4.7813 2.81-0.9248-1.0135-1.4423-2.8653-2.8347-1.0135-0.92828 1.2345-2.0921 3.5386-3.4915 6.9123z"/>
<filter id="x" x="-5.7%" y="-12.1%" width="111.4%" height="124.7%">
<feGaussianBlur in="SourceAlpha" result="shadowBlurInner1" stdDeviation="1.5"/>
<feOffset dx="0" dy="4" in="shadowBlurInner1" result="shadowOffsetInner1"/>
<feComposite in="shadowOffsetInner1" in2="SourceAlpha" k2="-1" k3="1" operator="arithmetic" result="shadowInnerInner1"/>
<feColorMatrix in="shadowInnerInner1" values="0 0 0 0 0   0 0 0 0 0   0 0 0 0 0  0 0 0 0.5 0"/>
</filter>
<path id="o" d="m574 26c16.016 0 29 12.984 29 29v51c0 16.016-12.984 29-29 29h-157c-4.172 0-8.1382-0.88098-11.723-2.4671l-51.277 25.467c22.769-16.979 35.065-30.101 36.891-39.367-1.8525-3.818-2.8906-8.1043-2.8906-12.633v-51c0-16.016 12.984-29 29-29h157z"/>
<filter id="w" x="0%" y="0%" width="100%" height="100%">
<feOffset dx="0" dy="0" in="SourceAlpha" result="shadowOffsetOuter1"/>
<feMorphology in="SourceAlpha" radius="2" result="shadowInner"/>
<feOffset dx="0" dy="0" in="shadowInner" result="shadowInner"/>
<feComposite in="shadowOffsetOuter1" in2="shadowInner" operator="out" result="shadowOffsetOuter1"/>
<feColorMatrix in="shadowOffsetOuter1" values="0 0 0 0 0   0 0 0 0 0   0 0 0 0 0  0 0 0 0.5 0"/>
</filter>
<filter id="v" x="-1.4%" y="-2.7%" width="102.8%" height="105.3%">
<feGaussianBlur in="SourceAlpha" result="shadowBlurInner1" stdDeviation="2.5"/>
<feOffset dx="2" dy="0" in="shadowBlurInner1" result="shadowOffsetInner1"/>
<feComposite in="shadowOffsetInner1" in2="SourceAlpha" k2="-1" k3="1" operator="arithmetic" result="shadowInnerInner1"/>
<feColorMatrix in="shadowInnerInner1" values="0 0 0 0 0   0 0 0 0 0   0 0 0 0 0  0 0 0 0.5 0"/>
</filter>
</defs>
<g fill="none" fill-rule="evenodd">
<g transform="translate(124 100)">
<g transform="translate(22)">
<g transform="translate(31 390)">
<g transform="translate(98.5 14.5) scale(-1 1) translate(-98.5 -14.5)">
<use fill="#ECC0C1" fill-rule="evenodd" xlink:href="#n"/>
<use fill="black" filter="url(#ae)" xlink:href="#n"/>
<use stroke="#000000" xlink:href="#n"/>
</g>
<path transform="translate(100.5 25) scale(-1 1) translate(-100.5 -25)" d="m70.079 28.462c-2.3267 0.35892-2.7007 2.0846-1.1219 5.177 38.716 1.8141 59.142 1.8141 61.28 0s2.6966-3.5398 1.6773-5.177h-10.839l10.839-7.2692c1.4478-3.7762 1.4478-5.8346 0-6.1751-1.4478-0.34056-7.5396 4.1409-18.275 13.444h-19.326c-2.5573-7.7471-4.6449-11.621-6.2626-11.621-2.4266 0-6.8118 1.1695-6.8118 2.7604 0 1.0606 1.2214 4.014 3.6641 8.8602-7.5552-0.35892-12.496-0.35892-14.823 0z" fill="#76412A" stroke="#1E1C1C"/>
<g transform="translate(24.5 16.5) scale(-1 1) translate(-24.5 -16.5)">
<use fill="#ECC0C1" fill-rule="evenodd" xlink:href="#f"/>
<use fill="black" filter="url(#u)" xlink:href="#f"/>
<use stroke="#000000" xlink:href="#f"/>
</g>
<path transform="translate(24.5 26.5) scale(-1 1) translate(-24.5 -26.5)" d="m1.0932 17.039c0 0.78448-1.2992 8.6187 0 10.165 1.2992 1.5468 2.0949 2.7999 1.697 2.7999s-2.7902-0.84349-2.7902 0.48607v4.4026s44.63 2.4906 47.437 0c1.8709-1.6604 2.0624-3.6392 0.57456-5.9364-14.369 2.2862-21.554 3.0324-21.554 2.2385 0-1.1908 0.19301-3.137 1.89-4.9396s10.627-5.6207 12.87-4.9097c2.2429 0.711 1.7519-1.2098 0-2.1307-1.7519-0.92092-12.435-0.4645-16.503 1.2514-4.0675 1.7159-6.7975 9.6308-6.7975 10.729 0 0.7318-2.0645 0.7318-6.1934 0-7.0871-9.9603-10.631-14.679-10.631-14.156z" fill="#76412A" stroke="#161515"/>
</g>
<polygon points="95 68.324 95 60.292 83.112 9 28.39 20.329 17 46.933 26.893 74.084 50.771 105 87.654 99.156" fill="#ECC0C1" stroke="#000"/>
<g id="Combined-Shape">
<use fill="#ECC0C1" fill-rule="evenodd" xlink:href="#c"/>
<use fill="black" filter="url(#t)" xlink:href="#c"/>
<use stroke="#000000" xlink:href="#c"/>
</g>
<g id="Combined-Shape">
<use fill="#DCD3D3" fill-rule="evenodd" xlink:href="#b"/>
<use fill="black" filter="url(#s)" xlink:href="#b"/>
<use stroke="#000000" xlink:href="#b"/>
</g>
<g transform="translate(1)">
<g stroke-linejoin="round">
<use fill="#F2F2F2" fill-rule="evenodd" xlink:href="#a"/>
<use fill="black" filter="url(#aj)" xlink:href="#a"/>
<use stroke="#000000" xlink:href="#a"/>
</g>
<use fill="#D8D8D8" fill-rule="evenodd" xlink:href="#m"/>
<use fill="black" filter="url(#ai)" xlink:href="#m"/>
<use stroke="#000000" xlink:href="#m"/>
<g filter="url(#ah)">
<g transform="translate(41.383 32.16)">
<path d="m0 6.4815c9.3552-9.3975 14.714-8.576 16.075 2.4647" stroke="#9A9A9A"/>
<path d="m1.9835 13.165c4.8867 2.138 7.9969 3.5135 9.3308 4.1264 1.3338 0.61289 2.9208 0.91933 4.761 0.91933" stroke="#9A9A9A"/>
<path d="m6.2209 13.165c4.0883-4.1309 6.453-2.7554 7.0941 4.1264" stroke="#9A9A9A"/>
<line x1="34.499" x2="48.733" y1="13.98" y2="13.205" stroke="#9A9A9A"/>
<line x1="35.869" x2="47.574" y2="5.3025" stroke="#9A9A9A"/>
<path d="m18.118 13.205v7.7894l5.2895 12.522 16.721-5.102v-3.5815l-3.4187-5.269" stroke="#9A9A9A"/>
<path d="m5.5 14.066c2.0741-2.3296 3.4967-3.4047 4.268-3.2253 0.5678 0.13204 1.9093 0.95955 2.7531 2.269 0.87531 1.3585 1.2353 3.215 0.79397 4.1817-0.16886 0.36988-0.27885 0.029942-0.79397 0-0.83169-0.048343-3.172-1.1235-7.021-3.2253z" fill="#D8D8D8" stroke="#979797"/>
</g>
</g>
</g>
<path d="m57.537 283s2.8364 93.133-5.5374 105" stroke="#000"/>
<path d="m75 283c0 2.4352 0.47847 96.625 9 102" stroke="#000"/>
<path d="m105 283c8 55.946 10.667 88.946 8 99" stroke="#000"/>
<path d="m43.805 255.8c-6.54 3.6081-2.9834 5.3029-1.4917 7.2594 1.4917 1.9565 75.077 3.1406 76.35 0 0.84915-2.0937 0.092161-4.5135-2.271-7.2594-44.032-2.4054-68.228-2.4054-72.588 0z" fill="#B87C3A" stroke="#000"/>
<path d="m80.562 45.752c0.68778-2.3357 1.8689-3.8845 3.5433-4.6465 2.5116-1.143 7.3886 2.4724 6.679 3.5756-0.47301 0.73547-3.8805 1.0924-10.222 1.0709z" fill="#010101" stroke="#000"/>
</g>
<ellipse cx="110.5" cy="426" rx="110.5" ry="9" fill="url(#r)"/>
</g>
<g transform="translate(370 221)">
<ellipse id="ak" cx="110.5" cy="303.53" rx="110.5" ry="15.5" fill="url(#q)"/>
<g transform="translate(64.451 253.03)">
<g transform="translate(0 2)">
<g id="al">
<use fill="#ECC4C5" fill-rule="evenodd" xlink:href="#l"/>
<use fill="black" filter="url(#ag)" xlink:href="#l"/>
<use stroke="#000000" xlink:href="#l"/>
</g>
<path id="Combined-Shape" d="m33.659 17.734c0-0.48567 3.7346 1.0907 4.4967 2.0449s7.6926 6.2637 9.4724 8.6723c1.7798 2.4087 1.5182 5.7138 1.5182 6.6858s1.582 3.591 2.1536 3.591 2.8366-0.98103 3.0871-0.98103c0.1315 0 0.40315-1.786 0.71347-3.6349l0.089626-0.52847c0.25642-1.4937 0.53185-2.9211 0.77243-3.3681 0.37739-0.70107 1.5119-1.5956 3.4035-2.6836 1.5713 3.6124 2.7343 5.8234 3.4891 6.6331 1.1322 1.2144 1.1447 6.1846 1.1447 6.7952 0 0.34275-3.1086 1.5186-6.3374 2.6734l-0.60608 0.21607c-2.3231 0.82572-4.6118 1.613-5.7563 2.0448-2.8366 1.07-23.99 5.4205-28.273 5.9843-1.8641 0.24544-6.4687 0.084976-11.075-0.17452l-0.74649-0.0429c-5.7166-0.33481-11.206-0.79706-11.206-0.79706s0.73435-14.444 9.2067-14.444c5.6482 0 9.2024 2.732 10.662 8.196l6.3298-1.1049c-0.19041-5.781-0.49855-8.8965-0.9244-9.3464-0.42585-0.44993-2.2277-1.0138-5.4054-1.6915l-2.299-2.258c0.53705-0.62854 1.0088-1.2166 1.4152-1.7643 0.40641-0.54767 2.5028-0.54767 6.2892 0-0.42068-1.9817-0.63103-3.2219-0.63103-3.7209s1.4344-1.1756 4.3032-2.0301l0.80483 7.5152c1.0281 0.40334 1.7917 0.40334 2.2907 0 0.74856-0.60501 10.452 6.9903 10.452 7.5314 0 0.44696 0.86175 0.15546 1.7506-0.26446l0.28063-0.13616c0.093194-0.046337 0.18572-0.093385 0.27659-0.14043 0.52868-0.27371-3.0973-4.4796-6.8097-8.6328l-0.77689-0.86716c-3.36-3.7426-6.5576-7.2133-6.5576-7.4389 0-0.4918 3.0011-2.0473 3.0011-2.533zm-3.791 17.799 0.86727 6.767 6.087-1.8064-6.9543-4.9606z" fill="#76412A" stroke="#000" stroke-linejoin="round"/>
</g>
<g transform="translate(39)">
<use fill="#ECC4C5" fill-rule="evenodd" xlink:href="#k"/>
<use fill="black" filter="url(#af)" xlink:href="#k"/>
<use stroke="#000000" xlink:href="#k"/>
<path id="am" d="m35.763 19.696c0-0.51454 3.9681 1.1555 4.7777 2.1665 0.80965 1.0109 8.1734 6.6361 10.064 9.188 1.891 2.5519 1.613 6.0535 1.613 7.0833 0 1.0298 1.6809 3.8045 2.2882 3.8045s3.0139-1.0394 3.28-1.0394c0.26613 0 1.0725-6.8651 1.674-7.9792 0.40097-0.74275 1.6064-1.6905 3.6162-2.8432 1.6695 3.8272 2.9052 6.1697 3.7072 7.0275 1.2029 1.2866 1.2162 6.5524 1.2162 7.1992s-10.48 4.094-13.494 5.2276c-1.5446 0.58097-8.2009 2.0748-14.936 3.4737l-0.98564 0.20391c-6.0744 1.2518-12.013 2.3863-14.118 2.6626-1.8614 0.24438-6.2945 0.10894-10.884-0.13646l-1.1491-0.063484c-0.12773-0.0072736-0.25543-0.014615-0.38304-0.022018l-0.76422-0.045111c-4.5741-0.27455-8.9016-0.61408-10.567-0.74873l-0.2525-0.020498c-0.30269-0.024678-0.46729-0.038497-0.46729-0.038497s0.057128-1.1204 0.31881-2.7549l0.073003-0.43766c0.77837-4.4852 3.036-12.11 9.3903-12.11 6.0012 0 9.7775 2.8944 11.329 8.6833l6.7254-1.1706c-0.20232-6.1248-0.52971-9.4255-0.98217-9.9022s-2.3669-1.074-5.7433-1.792l-2.4427-2.3923c0.57061-0.66591 1.0718-1.289 1.5036-1.8692 0.43182-0.58024 2.6592-0.58024 6.6823 0-0.44698-2.0995-0.67046-3.4135-0.67046-3.9421 0-0.52857 1.524-1.2455 4.5721-2.1508l0.85514 7.9621c1.0923 0.42732 1.9036 0.42732 2.4339 0 0.79534-0.64099 11.106 7.406 11.106 7.9792s1.3417 0 2.4521-0.57323c0.56781-0.29313-3.3749-4.843-7.3635-9.2891l-0.5317-0.59182-0.52989-0.58829c-3.4333-3.8075-6.6031-7.2459-6.6031-7.4768 0-0.23881 0.66984-0.71437 1.3955-1.209l0.39766-0.2704c0.72566-0.49441 1.3955-0.96835 1.3955-1.2042zm-4.028 18.857 0.92148 7.1694 6.4674-1.9138-7.3889-5.2556z" fill="#76412A" stroke="#000" stroke-linejoin="round"/>
</g>
</g>
<use fill="#679FC1" fill-rule="evenodd" xlink:href="#j"/>
<use fill="black" filter="url(#ad)" xlink:href="#j"/>
<use stroke="#000000" xlink:href="#j"/>
<use fill="#ECBCB4" fill-rule="evenodd" xlink:href="#i"/>
<use fill="black" filter="url(#ac)" xlink:href="#i"/>
<use stroke="#000000" xlink:href="#i"/>
<path d="m96.998 16.164c-17.813 15.828-27.781 26.847-29.903 33.056-2.1221 6.2088-3.1832 17.246-3.1832 33.112l3.1832 51.018h96.642c18.955-27.936 28.432-41.905 28.432-41.905s2.1771-19.187 6.5314-57.56c-26.066-16.122-41.815-23.106-47.247-20.952s-23.584 3.2304-54.455 3.2304z" fill="#EAC8C2" stroke="#141414"/>
<g stroke-linejoin="round">
<use fill="#BFBFBD" fill-rule="evenodd" xlink:href="#h"/>
<use fill="black" filter="url(#ab)" xlink:href="#h"/>
<use stroke="#000000" xlink:href="#h"/>
</g>
<ellipse cx="132.45" cy="91.533" rx="3.5" ry="5" fill="#000" stroke="#000"/>
<use fill="#000000" fill-rule="evenodd" xlink:href="#p"/>
<use fill="black" filter="url(#aa)" xlink:href="#p"/>
<ellipse cx="78.951" cy="91.533" rx="3" ry="5" stroke="#000" stroke-linejoin="square"/>
<use fill="#7D7E8C" fill-rule="evenodd" xlink:href="#g"/>
<use fill="black" filter="url(#z)" xlink:href="#g"/>
<use stroke="#000000" xlink:href="#g"/>
<use fill="#7D7E8C" fill-rule="evenodd" xlink:href="#e"/>
<use fill="black" filter="url(#y)" xlink:href="#e"/>
<use stroke="#000000" xlink:href="#e"/>
<use fill="#7D7E8C" fill-rule="evenodd" xlink:href="#d"/>
<use fill="black" filter="url(#x)" xlink:href="#d"/>
<use stroke="#000000" xlink:href="#d"/>
<path d="m93.845 214.52c-6.595 10.862-11.262 33.714-11.262 38.971" stroke="#000"/>
<path d="m109.44 215.94c6.6989 8.4327 12.667 27.281 10.599 34.714-2.0679 7.4332-0.64299 12.991 1.4249 12.991" stroke="#000"/>
<path d="m143.3 182.17c5.0782 41.768 9.2539 64.596 12.527 68.485" stroke="#000"/>
<path d="m191.2 264.9c-5.8146-7.6801-12.228-18.252-12.228-21.062" stroke="#000"/>
</g>
<use fill="black" filter="url(#w)" xlink:href="#o"/>
<use fill="black" filter="url(#v)" xlink:href="#o"/>
<path d="m574 27c7.732 0 14.732 3.134 19.799 8.201 5.067 5.067 8.201 12.067 8.201 19.799v51c0 7.732-3.134 14.732-8.201 19.799-5.067 5.067-12.067 8.201-19.799 8.201h-157c-4.1934 0-8.1716-0.92149-11.743-2.5737l-42.54 21.128c17.886-14.242 27.536-25.511 29.155-33.728-1.8699-4.3158-2.8718-8.4542-2.8718-12.826v-51c0-7.732 3.134-14.732 8.201-19.799 5.067-5.067 12.067-8.201 19.799-8.201z" stroke="#7A7474" stroke-linejoin="square" stroke-width="2"/>
</g>
</svg>
