
<svg width="746px" height="644px" viewBox="0 0 746 644" version="1.1" xmlns="http://www.w3.org/2000/svg" xmlns:xlink="http://www.w3.org/1999/xlink">
    <defs>
        <path d="M111.075234,0 L110.358192,11.5643291 C97.729548,14.1531708 89.3632596,16.4518286 85.2593264,18.4603025 C79.1034266,21.4730135 71.4501738,21.4209994 69.0333571,21.4470064 C66.6165404,21.4730135 63.2084193,29 66.1208882,29 C68.0625341,29 85.8211784,29 119.396821,29 C125.065548,28.2421488 127.899911,25.7244843 127.899911,21.4470064 C127.899911,17.1695285 129.266608,11.5218347 132,4.50392485 L111.075234,0 Z" id="path-1"></path>
        <filter x="-6.7%" y="-15.9%" width="113.7%" height="131.4%" filterUnits="objectBoundingBox" id="filter-2">
            <feGaussianBlur stdDeviation="2" in="SourceAlpha" result="shadowBlurInner1"></feGaussianBlur>
            <feOffset dx="0" dy="4" in="shadowBlurInner1" result="shadowOffsetInner1"></feOffset>
            <feComposite in="shadowOffsetInner1" in2="SourceAlpha" operator="arithmetic" k2="-1" k3="1" result="shadowInnerInner1"></feComposite>
            <feColorMatrix values="0 0 0 0 0   0 0 0 0 0   0 0 0 0 0  0 0 0 0.5 0" type="matrix" in="shadowInnerInner1"></feColorMatrix>
        </filter>
        <path d="M6.15483259,3.15316353 C5.56257206,3.86101469 1,11.5504551 1,13.7316039 C1,15.1857032 1.78229337,17.449917 3.34688012,20.5242455 L11.6492265,31 L29.2519109,31 C40.5372544,30.0618544 46.5112099,29.2000637 47.1737775,28.414628 C48.1676288,27.2364745 48.3781679,24.6256509 47.1737775,24.0812068 C45.969387,23.5367626 33.4635193,18.4187664 32.2235932,17.7437441 C30.9836671,17.0687219 18.8426359,13.4125361 19.7154328,12.1720444 C19.9472278,11.8425982 16.4350528,5.30326231 16.4350528,4.04943919 C16.4350528,0.397946529 6.58980227,2.63330145 6.15483259,3.15316353 Z" id="path-3"></path>
        <filter x="-7.4%" y="-12.1%" width="114.9%" height="124.1%" filterUnits="objectBoundingBox" id="filter-4">
            <feGaussianBlur stdDeviation="1.5" in="SourceAlpha" result="shadowBlurInner1"></feGaussianBlur>
            <feOffset dx="0" dy="3" in="shadowBlurInner1" result="shadowOffsetInner1"></feOffset>
            <feComposite in="shadowOffsetInner1" in2="SourceAlpha" operator="arithmetic" k2="-1" k3="1" result="shadowInnerInner1"></feComposite>
            <feColorMatrix values="0 0 0 0 0   0 0 0 0 0   0 0 0 0 0  0 0 0 0.5 0" type="matrix" in="shadowInnerInner1"></feColorMatrix>
        </filter>
        <path d="M178.223228,43.9879126 C181.749794,46.8536258 188.596653,54.9829892 188.596653,57.191548 C188.596653,59.4001068 190.698566,67.967783 192.176849,67.967783 L192.270111,67.9674267 C193.580248,67.9587591 201.29422,67.7919069 215.412028,67.4668702 C218.70064,68.1895351 220.362348,69.4704023 220.397152,71.3094717 C220.449359,74.0680759 222.42803,79.9104775 218.920029,80.7661165 C215.412028,81.6217555 213.605772,83.4946281 213.605772,84.8949593 C213.605772,86.2952904 212.405956,89.536313 209.777361,89.536313 C207.148767,89.536313 203.151901,90.784486 197.664375,90.784486 L189.819159,90.784486 L189.819159,90.784486 L172.442251,96.4521541 C173.686598,111.554881 174.321215,124.052587 174.346102,133.945271 L174.346102,135.1436 C174.321215,144.82363 173.686598,151.898637 172.442251,156.368624 C168.633025,170.052255 152.925328,186.164206 138.059984,186.164206 C128.149755,186.164206 121.280266,185.294747 117.451518,183.555827 L116.300818,277 L43.1098014,277 C25.3292839,262.297366 14.8625736,251.508957 11.7096704,244.634771 C10.0071027,240.922711 7.7990435,235.09373 5.75990526,228.929373 L5.42172861,227.899181 C1.94578863,217.228082 -0.91799338,205.855807 0.275413771,202.882841 C1.18009339,200.629141 9.03589127,188.797589 17.1089125,176.558602 L18.1401721,174.994672 L18.1401721,174.994672 L19.1706786,173.430554 C27.5749304,160.667707 35.5923767,148.310308 35.5923767,146.74999 C35.5923767,144.627109 51.7230625,147.83332 83.9844342,156.368624 L134.004674,162.091748 L131.502953,171.623357 C141.319891,170.523238 148.010551,167.346035 151.574933,162.091748 C156.921506,154.210318 159.858134,146.472988 158.966351,130.834923 C158.371829,120.409545 157.612704,108.611396 156.688978,95.4404728 C147.713517,91.2993192 142.508064,87.3810781 141.072619,83.6857494 C138.919451,78.1427563 138.059984,79.2720823 138.059984,72.7360031 C138.059984,66.1999239 136.831528,62.7985471 141.072619,61.0169343 C145.313709,59.2353214 149.405638,57.7832793 151.574933,59.4001068 C153.744228,61.0169343 152.106428,67.8434625 152.925328,70.2897328 C153.744228,72.7360031 162.193134,80.7661165 165.963101,80.7661165 C169.733068,80.7661165 169.457351,79.8610756 171.97387,76.2985393 C174.49039,72.7360031 178.321551,73.7745462 175.147711,67.967783 C171.97387,62.1610197 169.761946,56.5257883 164.851294,57.5006521 C164.64233,57.5421357 164.43637,57.5880014 164.233537,57.6369535 L163.931648,57.7125342 C159.538785,58.8502487 156.688978,61.1680785 156.688978,50.8664075 C156.688978,39.86235 174.696662,41.1221993 178.223228,43.9879126 Z M29.472152,188.06525 C22.0817086,197.846897 19.078072,204.520158 20.4612422,208.085033 C22.5359976,213.432345 32.7563876,239.06522 44.6166438,254.03148 C52.5234813,264.008987 63.9713149,246.010613 78.9601446,200.036359 L29.472152,188.06525 Z" id="path-5"></path>
        <filter x="-2.7%" y="-2.6%" width="105.4%" height="105.1%" filterUnits="objectBoundingBox" id="filter-6">
            <feGaussianBlur stdDeviation="4.5" in="SourceAlpha" result="shadowBlurInner1"></feGaussianBlur>
            <feOffset dx="2" dy="1" in="shadowBlurInner1" result="shadowOffsetInner1"></feOffset>
            <feComposite in="shadowOffsetInner1" in2="SourceAlpha" operator="arithmetic" k2="-1" k3="1" result="shadowInnerInner1"></feComposite>
            <feColorMatrix values="0 0 0 0 0   0 0 0 0 0   0 0 0 0 0  0 0 0 0.5 0" type="matrix" in="shadowInnerInner1"></feColorMatrix>
        </filter>
        <path d="M35.5134038,146.111806 C38.9829407,148.734799 57.7389254,177.002976 75.2043974,177.002976 C86.8480454,177.002976 102.756848,173.53573 122.930806,166.601238 L146.72868,163.300021 C144.716012,175.898464 144.716012,183.271877 146.72868,185.420261 C148.640715,187.461225 140.446943,191.104375 122.147365,196.34971 L120.978165,196.683125 C120.386846,196.850898 119.78545,197.020268 119.173976,197.191236 L118.077513,263.579694 C125.413794,279.1262 146.181321,378.346131 143.812937,392.312727 C141.278649,407.257674 130.457298,392.312727 119.325072,394.668601 C108.192846,397.024476 102.294271,399.678022 97.0700176,399.678022 C91.8457644,399.678022 80.8271086,396.088744 75.6160387,394.668601 C70.4049689,393.248459 57.1065504,396.088744 51.7361611,399.678022 C46.3657718,403.267301 15.8454106,399.609032 23.1120627,387.952156 C27.8138642,380.409712 34.3331631,340.514607 42.6699594,268.266843 L39.0836167,196.163151 C35.2642396,196.238175 31.7247939,196.278142 28.4652796,196.283055 L27.0854836,196.283014 C8.00828009,196.252395 -0.991393528,194.959784 0.0864627113,192.405182 C2.011206,187.843392 32.0438668,143.488814 35.5134038,146.111806 Z" id="path-7"></path>
        <filter x="-4.8%" y="-2.7%" width="109.5%" height="105.5%" filterUnits="objectBoundingBox" id="filter-8">
            <feGaussianBlur stdDeviation="3.5" in="SourceAlpha" result="shadowBlurInner1"></feGaussianBlur>
            <feOffset dx="6" dy="1" in="shadowBlurInner1" result="shadowOffsetInner1"></feOffset>
            <feComposite in="shadowOffsetInner1" in2="SourceAlpha" operator="arithmetic" k2="-1" k3="1" result="shadowInnerInner1"></feComposite>
            <feColorMatrix values="0 0 0 0 0   0 0 0 0 0   0 0 0 0 0  0 0 0 0.5 0" type="matrix" in="shadowInnerInner1"></feColorMatrix>
        </filter>
        <path d="M87.4110712,29.2987806 L87.4110712,12.1097934 C82.3577884,5.36283348 78.1885124,1.98935351 74.9032434,1.98935351 C69.9753398,1.98935351 67.4349965,3.39603887 64.7902356,1.98935351 C62.1454747,0.582668153 60.1846546,-0.824017204 57.4413505,0.582668153 C54.6980464,1.98935351 53.1457268,0.62388698 50.4124135,1.98935351 C47.6791001,3.35482004 38.6846406,6.87520322 34.1421282,8.32664003 C29.5996157,9.77807684 20.2505376,17.6032888 17.9961055,21.5794843 C15.7416734,25.5556798 13.9520433,27.4693906 13.9520433,29.2987806 C13.9520433,31.1281706 15.8734148,31.6874264 13.9520433,33.3557981 C12.0306717,35.0241698 11.1039193,34.8126178 12.0962573,35.8064166 C13.0885952,36.8002154 12.7697924,37.7238604 11.2219733,39.64973 C9.67415428,41.5755997 9.67586521,44.3844521 8.59912151,46.9177403 C7.52237782,49.4510285 7.29938694,52.2535625 8.59912151,53.0805107 C9.89885609,53.907459 14.8725223,55.4638327 13.9520433,57.5922265 C13.0315643,59.7206203 13.8448252,61.6443901 11.2219733,63.6601624 C8.59912151,65.6759347 1.42108547e-14,77.2570566 1.42108547e-14,82.4360341 C1.42108547e-14,83.5234004 0.105192098,84.5608148 0.321284911,85.5295481 C1.13441275,89.1747594 3.51779981,91.8475034 7.77559509,92.5498968 C13.1649209,93.4389547 27.2066645,91.1691783 26.4521124,93.4629617 C25.6975604,95.7567452 21.6333206,102.432544 20.2048698,103.53177 C18.7764191,104.630996 17.9961055,105.729171 17.9961055,107.787987 C17.9961055,109.846803 17.5313467,116.950004 18.8681082,117.711937 C20.2048698,118.47387 29.7640045,130.956067 33.1418758,127.814884 C36.5197471,124.673701 30.6204691,137.669336 31.3806912,141.394025 C32.1409133,145.118714 36.9371802,159.181967 48.7802534,162.843352 C60.6233266,166.504737 69.2027132,163.046709 70.3876861,162.16827 C71.5726589,161.28983 72.9475733,166.84179 74.9032434,166.84179 C76.8589134,166.84179 81.7857554,168.59435 83.4447847,168.59435 C85.1038141,168.59435 88.486227,166.122255 90.0012987,164.482803 C91.5163703,162.843352 98.238034,179.719025 111.952829,176.612724 C125.667623,173.506423 140.261835,163.826565 138.915905,152.610295 C137.569976,141.394025 133.386188,139.629488 136.151046,136.870333 C138.915905,134.111177 140.413537,128.781478 138.915905,127.814884 C137.418273,126.84829 133.386188,125.804624 136.151046,123.381951 C138.915905,120.959277 142.869288,105.03326 138.915905,101.234126 C134.962522,97.4349918 130.025356,91.6368318 125.799935,92.5498968 C121.574515,93.4629617 116.092133,93.4629617 114.022481,93.4629617 C111.952829,93.4629617 108.708233,95.9686795 107.473613,95.9686795 C106.238992,95.9686795 98.0750448,92.5498968 99.5687536,88.9698011 C100.564559,86.5830707 93.0004156,81.535923 76.876322,73.828358 L62.9769593,82.4360341 L52.8699404,81.0696652 L47.6039785,79.5303089 L44.914157,77.5970054 L32.2016411,64.7367228 C31.1149219,58.8988826 31.4283334,55.4967205 33.1418758,54.5302366 C35.7121893,53.0805107 39.5880103,53.8229769 38.0738395,50.3703586 C36.5596687,46.9177403 36.9035651,45.4329609 34.1421282,46.1753506 C31.3806912,46.9177403 26.4521124,46.1496154 26.4521124,42.8996727 C26.4521124,39.64973 34.8698427,32.5731721 36.4718411,30.9359764 C38.0738395,29.2987806 43.3665298,25.7108038 43.3665298,23.6451441 C43.3665298,21.5794843 64.3508341,16.2384752 65.9288795,16.2384752 C66.9809098,16.2384752 73.0454929,16.2384752 84.1226289,16.2384752 L87.4110712,29.2987806 Z" id="path-9"></path>
        <filter x="-3.6%" y="-2.8%" width="107.1%" height="105.7%" filterUnits="objectBoundingBox" id="filter-10">
            <feGaussianBlur stdDeviation="2.5" in="SourceAlpha" result="shadowBlurInner1"></feGaussianBlur>
            <feOffset dx="4" dy="1" in="shadowBlurInner1" result="shadowOffsetInner1"></feOffset>
            <feComposite in="shadowOffsetInner1" in2="SourceAlpha" operator="arithmetic" k2="-1" k3="1" result="shadowInnerInner1"></feComposite>
            <feColorMatrix values="0 0 0 0 0   0 0 0 0 0   0 0 0 0 0  0 0 0 0.5 0" type="matrix" in="shadowInnerInner1"></feColorMatrix>
        </filter>
        <path d="M74.5198006,81.4596429 C74.5198006,78.1870086 81.4201273,78.9977154 82.1426403,79.7765649 C82.8651533,80.5554144 81.6121154,83.035493 85.8328027,84.7322771 C90.05349,86.4290612 90.2672897,88.9698011 92.0189783,88.9698011 C93.7706669,88.9698011 111.95573,89.632176 110.168683,75.638283 C108.381636,61.6443901 94.7318929,64.4678369 93.914103,66.7848323 C93.0963131,69.1018276 93.9844665,71.1449644 92.0189783,71.1449644 C90.05349,71.1449644 90.05349,63.6601624 84.6668196,62.6300746 C79.2801492,61.5999868 66.9401456,61.878753 63.7817361,70.8276589 C60.6233266,79.7765649 56.9623184,70.8276589 55.8301824,70.8276589 C54.6980464,70.8276589 41.6926337,73.1063447 44.6483061,84.7322771 C47.6039785,96.3582095 53.9985449,99.9999239 62.1454747,97.4349918 C70.2924044,94.8700597 74.5198006,84.7322771 74.5198006,81.4596429 Z" id="path-11"></path>
        <filter x="-7.6%" y="-14.1%" width="115.1%" height="128.0%" filterUnits="objectBoundingBox" id="filter-12">
            <feGaussianBlur stdDeviation="3" in="SourceAlpha" result="shadowBlurInner1"></feGaussianBlur>
            <feOffset dx="3" dy="0" in="shadowBlurInner1" result="shadowOffsetInner1"></feOffset>
            <feComposite in="shadowOffsetInner1" in2="SourceAlpha" operator="arithmetic" k2="-1" k3="1" result="shadowInnerInner1"></feComposite>
            <feColorMatrix values="0 0 0 0 0   0 0 0 0 0   0 0 0 0 0  0 0 0 0.5 0" type="matrix" in="shadowInnerInner1"></feColorMatrix>
        </filter>
        <filter id="filter-13">
            <feColorMatrix in="SourceGraphic" type="matrix" values="0 0 0 0 0.000000 0 0 0 0 0.000000 0 0 0 0 0.000000 0 0 0 1.000000 0"></feColorMatrix>
        </filter>
        <radialGradient cx="50%" cy="50%" fx="50%" fy="50%" r="613.888889%" gradientTransform="translate(0.500000,0.500000),scale(0.081448,1.000000),rotate(180.000000),scale(1.000000,0.056945),translate(-0.500000,-0.500000)" id="radialGradient-14">
            <stop stop-color="#000000" stop-opacity="0.434085446" offset="0%"></stop>
            <stop stop-color="#000000" stop-opacity="0" offset="100%"></stop>
        </radialGradient>
        <radialGradient cx="50%" cy="50%" fx="50%" fy="50%" r="356.451613%" gradientTransform="translate(0.500000,0.500000),scale(0.140271,1.000000),rotate(180.000000),scale(1.000000,0.103463),translate(-0.500000,-0.500000)" id="radialGradient-15">
            <stop stop-color="#000000" stop-opacity="0.434085446" offset="0%"></stop>
            <stop stop-color="#000000" stop-opacity="0" offset="100%"></stop>
        </radialGradient>
        <polygon id="path-16" points="36.5945172 -1.47469453e-14 36.5945172 17.9346734 2.92700339 40.5847909 1.85507246 47.3845968 19.2247948 48.2857143 47.4520726 43.5172174 62.1449275 38.3321575 58.2717685 27.8597159 56.6573325 -1.47677712e-14 52.5153862 0"></polygon>
        <filter x="-8.4%" y="-10.4%" width="117.0%" height="120.7%" filterUnits="objectBoundingBox" id="filter-17">
            <feGaussianBlur stdDeviation="2" in="SourceAlpha" result="shadowBlurInner1"></feGaussianBlur>
            <feOffset dx="0" dy="5" in="shadowBlurInner1" result="shadowOffsetInner1"></feOffset>
            <feComposite in="shadowOffsetInner1" in2="SourceAlpha" operator="arithmetic" k2="-1" k3="1" result="shadowInnerInner1"></feComposite>
            <feColorMatrix values="0 0 0 0 0   0 0 0 0 0   0 0 0 0 0  0 0 0 0.5 0" type="matrix" in="shadowInnerInner1"></feColorMatrix>
        </filter>
        <polygon id="path-18" points="38.8981354 -4.23365047e-14 37.6922774 21.220255 3.00578074 43.9308348 1.8630137 51.2912559 20.3805745 52.2666667 50.4731875 47.1050274 66.1369863 41.4924813 62.0078783 30.1566313 62.0078783 -3.36323562e-14 55.8710987 -2.63788991e-14"></polygon>
        <filter x="-7.9%" y="-9.6%" width="115.9%" height="119.1%" filterUnits="objectBoundingBox" id="filter-19">
            <feGaussianBlur stdDeviation="2" in="SourceAlpha" result="shadowBlurInner1"></feGaussianBlur>
            <feOffset dx="0" dy="5" in="shadowBlurInner1" result="shadowOffsetInner1"></feOffset>
            <feComposite in="shadowOffsetInner1" in2="SourceAlpha" operator="arithmetic" k2="-1" k3="1" result="shadowInnerInner1"></feComposite>
            <feColorMatrix values="0 0 0 0 0   0 0 0 0 0   0 0 0 0 0  0 0 0 0.5 0" type="matrix" in="shadowInnerInner1"></feColorMatrix>
        </filter>
        <path d="M147.122956,154.756531 C143.970613,173.172054 135.417448,187.883463 121.463461,198.890758 C100.532481,215.4017 85.3559912,183.143747 77.6697315,200.288524 C69.9834717,217.4333 77.6697315,257.97722 68.7997112,269.658295 C59.929691,281.339371 79.8086352,274.846795 93.8224618,270.887506 C107.836289,266.928218 110.634335,272.725082 117.975338,274.846795 C125.316341,276.968507 128.548363,275.316906 138.465313,272.487601 C148.382263,269.658295 162.648249,266.82899 168.343091,269.658295 C174.037934,272.487601 190.547957,284.318595 201.748073,279.223426 C212.948189,274.128257 200.345214,245.000658 198.7002,232.064159 C197.055186,219.127661 192.456963,197.391831 187.886077,186.979705 C183.31519,176.567579 160.950531,138.652941 155.788649,141.160045 C152.347395,142.831448 149.45883,147.36361 147.122956,154.756531 Z" id="path-20"></path>
        <filter x="-6.1%" y="-6.1%" width="112.2%" height="112.2%" filterUnits="objectBoundingBox" id="filter-21">
            <feGaussianBlur stdDeviation="6.5" in="SourceAlpha" result="shadowBlurInner1"></feGaussianBlur>
            <feOffset dx="3" dy="3" in="shadowBlurInner1" result="shadowOffsetInner1"></feOffset>
            <feComposite in="shadowOffsetInner1" in2="SourceAlpha" operator="arithmetic" k2="-1" k3="1" result="shadowInnerInner1"></feComposite>
            <feColorMatrix values="0 0 0 0 0   0 0 0 0 0   0 0 0 0 0  0 0 0 0.5 0" type="matrix" in="shadowInnerInner1"></feColorMatrix>
        </filter>
        <path d="M145.13902,157.435167 C153.924484,173.236635 158.317216,186.339231 158.317216,196.742955 C158.317216,212.34854 159.27612,226.659392 156.879441,226.659392 C154.482762,226.659392 156.35863,230.49789 161.462982,234.355224 C166.567335,238.212558 176.258992,244.648615 182.96815,243.022285 C189.677307,241.395956 202.766153,232.18327 206.785606,222.265905 C210.805059,212.34854 208.746818,153.809643 180.311831,145.395902 C161.355174,139.786741 144.520454,141.469934 129.80767,150.445482 C114.798447,158.995433 107.186762,163.270408 106.972615,163.270408 C106.758468,163.270408 98.5846126,163.270408 82.4510477,163.270408 C75.4775164,161.72874 69.2977334,160.957906 63.9116988,160.957906 C55.8326468,160.957906 46.7016598,160.957906 44.1055826,160.957906 C41.5095055,160.957906 25.5343763,152.772195 21.1668443,152.772195 C16.7993123,152.772195 11.9037847,157.435167 14.3515485,157.435167 C16.7993123,157.435167 19.584044,160.957906 16.9677963,160.957906 C14.3515485,160.957906 6.06894499,158.645404 6.06894499,160.957906 C6.06894499,163.270408 5.41952439,170.096382 8.10696257,172.164464 C9.89858802,173.543185 12.8521993,176.203868 16.9677963,180.146512 C27.5897655,180.146512 34.2651959,180.498629 36.9940875,181.202862 C41.0874248,182.259213 49.7647117,184.508022 55.8326468,184.508022 C61.9005818,184.508022 71.3435067,185.47941 71.3435067,187.674054 C71.3435067,189.868699 78.4259101,202.610847 80.5044713,205.954994 C82.5830324,209.299142 99.6918084,216.23429 121.463461,199.890758 C135.977896,188.995069 143.869749,174.843206 145.13902,157.435167 Z" id="path-22"></path>
        <filter x="-2.7%" y="-5.4%" width="105.4%" height="110.9%" filterUnits="objectBoundingBox" id="filter-23">
            <feGaussianBlur stdDeviation="4" in="SourceAlpha" result="shadowBlurInner1"></feGaussianBlur>
            <feOffset dx="2" dy="1" in="shadowBlurInner1" result="shadowOffsetInner1"></feOffset>
            <feComposite in="shadowOffsetInner1" in2="SourceAlpha" operator="arithmetic" k2="-1" k3="1" result="shadowInnerInner1"></feComposite>
            <feColorMatrix values="0 0 0 0 0   0 0 0 0 0   0 0 0 0 0  0 0 0 0.5 0" type="matrix" in="shadowInnerInner1"></feColorMatrix>
        </filter>
        <path d="M64.1698799,89.0719732 C62.6830352,105.24685 62.5969748,113.950759 63.9116988,115.183702 C65.8837847,117.033116 59.5830324,123.060831 56.4510477,125.873468 C53.3190631,128.686104 62.8004575,149.86406 68.8177246,154.142209 C74.8349916,158.420357 77.6697315,160.191708 77.6697315,164.103254 C77.6697315,168.0148 72.7564305,178.478102 77.6697315,180.146512 C82.5830324,181.814922 124.583032,188.380045 128.583032,185.097484 C132.583032,181.814922 132.862889,178.129079 134.722961,176.630513 C136.583032,175.131948 139.588242,174.646104 139.588242,172.575064 C139.588242,170.504025 137.289869,167.286516 141.494183,167.286516 C145.698497,167.286516 147.977882,163.832416 149.302325,158.987312 C150.626768,154.142209 156.122716,148.398754 162.198406,146.532952 C168.274096,144.667149 178.134299,148.497671 182.910136,148.497671 C187.685974,148.497671 207.896849,136.039894 209.015339,132.49264 C210.133829,128.945386 207.312999,113.566003 210.091994,111.406305 C212.870989,109.246608 226.685764,91.7126974 226.451048,82.332184 C226.216331,72.9516706 221.901229,70.9122685 219.301524,65.0654951 C216.701819,59.2187217 213.770427,52.9383424 218.202626,46.3270237 C222.634824,39.7157049 220.062012,38.0468139 215.077003,34.3003999 C210.091994,30.553986 208.529942,29.5385584 206.215601,23.4256154 C203.90126,17.3126724 174.02034,-0.87924946 146.544148,0.0331164675 C119.067955,0.945482395 107.876524,1.77196465 99.7987626,6.47758011 C91.7210011,11.1831956 88.4884009,22.3311004 91.1666962,23.4256154 C93.8449915,24.5201304 107.137507,13.9173681 139.588242,22.1960838 C172.038977,30.4747995 173.882468,53.7058116 172.038977,62.2376458 C170.195487,70.76948 164.893732,70.1413818 164.893732,72.9516706 C164.893732,75.7619594 161.933206,108.743102 158.671622,111.406305 C155.410038,114.069509 148.34153,116.232241 143.363991,121.052854 C140.045632,124.266597 136.026285,128.079859 131.305949,132.49264 L114.61385,119.793342 L93.8449915,122.033116 L80.5044713,125.873468 L67.711591,116.605932 L64.1698799,89.0719732 Z" id="path-24"></path>
        <filter x="-3.8%" y="-3.5%" width="107.6%" height="107.0%" filterUnits="objectBoundingBox" id="filter-25">
            <feMorphology radius="2" operator="erode" in="SourceAlpha" result="shadowSpreadInner1"></feMorphology>
            <feGaussianBlur stdDeviation="3" in="shadowSpreadInner1" result="shadowBlurInner1"></feGaussianBlur>
            <feOffset dx="4" dy="3" in="shadowBlurInner1" result="shadowOffsetInner1"></feOffset>
            <feComposite in="shadowOffsetInner1" in2="SourceAlpha" operator="arithmetic" k2="-1" k3="1" result="shadowInnerInner1"></feComposite>
            <feColorMatrix values="0 0 0 0 0.157158009   0 0 0 0 0.141807926   0 0 0 0 0.141807926  0 0 0 0.5 0" type="matrix" in="shadowInnerInner1"></feColorMatrix>
        </filter>
        <ellipse id="path-26" cx="78.9510477" cy="91.5331165" rx="3.5" ry="5.5"></ellipse>
        <filter x="-28.6%" y="-18.2%" width="157.1%" height="136.4%" filterUnits="objectBoundingBox" id="filter-27">
            <feGaussianBlur stdDeviation="1.5" in="SourceAlpha" result="shadowBlurInner1"></feGaussianBlur>
            <feOffset dx="0" dy="1" in="shadowBlurInner1" result="shadowOffsetInner1"></feOffset>
            <feComposite in="shadowOffsetInner1" in2="SourceAlpha" operator="arithmetic" k2="-1" k3="1" result="shadowInnerInner1"></feComposite>
            <feColorMatrix values="0 0 0 0 0   0 0 0 0 0   0 0 0 0 0  0 0 0 0.5 0" type="matrix" in="shadowInnerInner1"></feColorMatrix>
        </filter>
        <path d="M114.61385,77.8011321 C115.201131,77.8011321 117.010328,81.8858742 122.730688,82.332184 C126.544261,82.6297239 136.118335,82.6297239 151.452909,82.332184 L151.452909,67.3762745 L146.548666,62.2376458 C132.86041,61.4949335 125.246838,61.4949335 123.70795,62.2376458 C122.169063,62.9803581 119.137696,65.9714247 114.61385,71.2108456 C114.22233,75.6043699 114.22233,77.8011321 114.61385,77.8011321 Z" id="path-28"></path>
        <filter x="-10.8%" y="-19.2%" width="121.6%" height="138.3%" filterUnits="objectBoundingBox" id="filter-29">
            <feGaussianBlur stdDeviation="3" in="SourceAlpha" result="shadowBlurInner1"></feGaussianBlur>
            <feOffset dx="0" dy="1" in="shadowBlurInner1" result="shadowOffsetInner1"></feOffset>
            <feComposite in="shadowOffsetInner1" in2="SourceAlpha" operator="arithmetic" k2="-1" k3="1" result="shadowInnerInner1"></feComposite>
            <feColorMatrix values="0 0 0 0 0   0 0 0 0 0   0 0 0 0 0  0 0 0 0.5 0" type="matrix" in="shadowInnerInner1"></feColorMatrix>
        </filter>
        <path d="M64.876845,82.7784939 C77.2343183,82.7970726 84.7295252,82.4476889 87.3624657,81.7303429 C91.3118764,80.6543238 93.8449915,80.1472295 93.8449915,77.5885712 C93.8449915,75.029913 92.7511485,71.9293809 92.7511485,70.8907176 C92.7511485,69.8520544 92.4471495,66.5106417 90.4161957,66.5106417 C88.385242,66.5106417 82.8256767,65.0654951 77.6383622,65.0654951 C74.1801526,65.0654951 70.5091288,65.0654951 66.625291,65.0654951 L64.876845,82.7784939 Z" id="path-30"></path>
        <filter x="-14.0%" y="-22.6%" width="127.8%" height="145.2%" filterUnits="objectBoundingBox" id="filter-31">
            <feGaussianBlur stdDeviation="3" in="SourceAlpha" result="shadowBlurInner1"></feGaussianBlur>
            <feOffset dx="0" dy="1" in="shadowBlurInner1" result="shadowOffsetInner1"></feOffset>
            <feComposite in="shadowOffsetInner1" in2="SourceAlpha" operator="arithmetic" k2="-1" k3="1" result="shadowInnerInner1"></feComposite>
            <feColorMatrix values="0 0 0 0 0   0 0 0 0 0   0 0 0 0 0  0 0 0 0.5 0" type="matrix" in="shadowInnerInner1"></feColorMatrix>
        </filter>
        <path d="M71.3435067,128.945386 L73.4425706,145.395902 C85.1379948,141.417498 92.6278317,137.963236 95.9120814,135.033116 C100.838456,130.637936 102.511837,128.445611 100.818386,126.313576 C99.1249343,124.181541 109.453264,124.785836 111.143185,126.313576 C112.833107,127.841316 120.003724,140.228468 124.227386,142.447809 C128.451048,144.667149 130.896767,145.866049 132.451048,144.667149 C134.005328,143.468249 144.238884,128.178353 141.494183,126.313576 C138.749481,124.448799 134.76081,128.945386 133.03338,128.945386 C131.305949,128.945386 124.026623,116.113284 122.627673,116.113284 C121.228723,116.113284 120.285647,117.952949 120.285647,117.033116 C120.285647,116.113284 121.336826,112.755932 117.975338,112.755932 C114.61385,112.755932 86.4704496,110.906224 84.9954144,114.702186 C83.5203792,118.498148 84.3976242,118.440093 82.4510477,120.236605 C80.5044713,122.033116 78.594527,124.060188 77.6697315,123.046652 C76.7449359,122.033116 76.2274126,120.181362 74.8349916,122.033116 C73.906711,123.26762 72.7428826,125.571709 71.3435067,128.945386 Z" id="path-32"></path>
        <filter x="-5.7%" y="-12.1%" width="111.4%" height="124.7%" filterUnits="objectBoundingBox" id="filter-33">
            <feGaussianBlur stdDeviation="1.5" in="SourceAlpha" result="shadowBlurInner1"></feGaussianBlur>
            <feOffset dx="0" dy="4" in="shadowBlurInner1" result="shadowOffsetInner1"></feOffset>
            <feComposite in="shadowOffsetInner1" in2="SourceAlpha" operator="arithmetic" k2="-1" k3="1" result="shadowInnerInner1"></feComposite>
            <feColorMatrix values="0 0 0 0 0   0 0 0 0 0   0 0 0 0 0  0 0 0 0.5 0" type="matrix" in="shadowInnerInner1"></feColorMatrix>
        </filter>
        <path d="M574,26 C590.016258,26 603,38.9837423 603,55 L603,106 C603,122.016258 590.016258,135 574,135 L417,135 C412.827998,135 408.86176,134.119019 405.277171,132.53294 L354,158 C376.768516,141.021438 389.065393,127.899165 390.890631,118.633181 C389.038132,114.815219 388,110.528844 388,106 L388,55 C388,38.9837423 400.983742,26 417,26 L574,26 Z" id="path-34"></path>
        <filter x="-2.5%" y="-3.8%" width="105.3%" height="110.3%" filterUnits="objectBoundingBox" id="filter-35">
            <feOffset dx="0" dy="2" in="SourceAlpha" result="shadowOffsetOuter1"></feOffset>
            <feMorphology radius="2" operator="erode" in="SourceAlpha" result="shadowInner"></feMorphology>
            <feOffset dx="0" dy="2" in="shadowInner" result="shadowInner"></feOffset>
            <feComposite in="shadowOffsetOuter1" in2="shadowInner" operator="out" result="shadowOffsetOuter1"></feComposite>
            <feGaussianBlur stdDeviation="2" in="shadowOffsetOuter1" result="shadowBlurOuter1"></feGaussianBlur>
            <feColorMatrix values="0 0 0 0 0   0 0 0 0 0   0 0 0 0 0  0 0 0 0.5 0" type="matrix" in="shadowBlurOuter1"></feColorMatrix>
        </filter>
        <filter x="-3.3%" y="-5.3%" width="106.9%" height="113.4%" filterUnits="objectBoundingBox" id="filter-36">
            <feGaussianBlur stdDeviation="4" in="SourceAlpha" result="shadowBlurInner1"></feGaussianBlur>
            <feOffset dx="2" dy="2" in="shadowBlurInner1" result="shadowOffsetInner1"></feOffset>
            <feComposite in="shadowOffsetInner1" in2="SourceAlpha" operator="arithmetic" k2="-1" k3="1" result="shadowInnerInner1"></feComposite>
            <feColorMatrix values="0 0 0 0 0   0 0 0 0 0   0 0 0 0 0  0 0 0 0.5 0" type="matrix" in="shadowInnerInner1"></feColorMatrix>
        </filter>
    </defs>
    <g id="Artboard" stroke="none" stroke-width="1" fill="none" fill-rule="evenodd">
        <g id="alto" transform="translate(124.000000, 100.000000)">
            <g id="Group-8" transform="translate(22.000000, 0.000000)">
                <g id="Group-3" transform="translate(31.000000, 390.000000)">
                    <g id="Path-46" transform="translate(98.500000, 14.500000) scale(-1, 1) translate(-98.500000, -14.500000) ">
                        <use fill="#ECC0C1" fill-rule="evenodd" xlink:href="#path-1"></use>
                        <use fill="black" fill-opacity="1" filter="url(#filter-2)" xlink:href="#path-1"></use>
                        <use stroke="#000000" stroke-width="1" xlink:href="#path-1"></use>
                    </g>
                    <path d="M70.0792152,28.4623951 C67.7525142,28.8213161 67.3785467,30.5469873 68.9573126,33.6394088 C107.672838,35.4535304 128.099361,35.4535304 130.236882,33.6394088 C132.374403,31.8252872 132.933492,30.099616 131.91415,28.4623951 L121.075224,28.4623951 L131.91415,21.1931847 C133.36195,17.4169858 133.36195,15.3586042 131.91415,15.0180398 C130.466349,14.6774754 124.374587,19.1589271 113.638863,28.4623951 L94.3123692,28.4623951 C91.7550336,20.7153373 89.6675034,16.8418084 88.0497786,16.8418084 C85.6231914,16.8418084 81.2379599,18.0112796 81.2379599,19.6022322 C81.2379599,20.6628672 82.4593219,23.6162549 84.9020459,28.4623951 C77.3468597,28.1034742 72.4059161,28.1034742 70.0792152,28.4623951 Z" id="Path-47" stroke="#1E1C1C" fill="#76412A" transform="translate(100.500000, 25.000000) scale(-1, 1) translate(-100.500000, -25.000000) "></path>
                    <g id="Path-48" transform="translate(24.500000, 16.500000) scale(-1, 1) translate(-24.500000, -16.500000) ">
                        <use fill="#ECC0C1" fill-rule="evenodd" xlink:href="#path-3"></use>
                        <use fill="black" fill-opacity="1" filter="url(#filter-4)" xlink:href="#path-3"></use>
                        <use stroke="#000000" stroke-width="1" xlink:href="#path-3"></use>
                    </g>
                    <path d="M1.09320162,17.0391352 C1.09320162,17.8236102 -0.205976579,25.6577854 1.09320162,27.2045745 C2.39237982,28.7513636 3.18805972,30.0044325 2.79021977,30.0044325 C2.39237982,30.0044325 0,29.1609426 0,30.4905033 C0,31.8200641 0,34.8930714 0,34.8930714 C0,34.8930714 44.6304044,37.3836607 47.4367876,34.8930714 C49.3077097,33.2326786 49.4992297,31.2538722 48.0113478,28.9566521 C33.6422436,31.242839 26.4576916,31.9890158 26.4576916,31.1951825 C26.4576916,30.0044325 26.6506993,28.0582136 28.3477174,26.2556145 C30.0447355,24.4530154 38.9749646,20.6349576 41.2178206,21.3459568 C43.4606767,22.056956 42.9697659,20.1361941 41.2178206,19.2152702 C39.4658754,18.2943464 28.7823593,18.7507713 24.7148382,20.4666442 C20.6473171,22.182517 17.9172923,30.0974861 17.9172923,31.1951825 C17.9172923,31.9269801 15.8528221,31.9269801 11.7238817,31.1951825 C4.63676166,21.2348343 1.09320162,16.5161519 1.09320162,17.0391352 Z" id="Path-49" stroke="#161515" fill="#76412A" transform="translate(24.500000, 26.500000) scale(-1, 1) translate(-24.500000, -26.500000) "></path>
                </g>
                <path d="" id="Path-25" stroke="#979797"></path>
                <polygon id="Path-26" stroke="#000000" fill="#ECC0C1" points="95 68.323887 95 60.292305 83.1117446 9 28.3898983 20.32947 17 46.9327522 26.8932135 74.0841891 50.7709005 105 87.6543141 99.1562819"></polygon>
                <path d="" id="Path-34" stroke="#979797"></path>
                <path d="" id="Path-35" stroke="#979797"></path>
                <g id="Combined-Shape">
                    <use fill="#ECC0C1" fill-rule="evenodd" xlink:href="#path-5"></use>
                    <use fill="black" fill-opacity="1" filter="url(#filter-6)" xlink:href="#path-5"></use>
                    <use stroke="#000000" stroke-width="1" xlink:href="#path-5"></use>
                </g>
                <g id="Combined-Shape">
                    <use fill="#DCD3D3" fill-rule="evenodd" xlink:href="#path-7"></use>
                    <use fill="black" fill-opacity="1" filter="url(#filter-8)" xlink:href="#path-7"></use>
                    <use stroke="#000000" stroke-width="1" xlink:href="#path-7"></use>
                </g>
                <g id="Group-2" transform="translate(1.000000, 0.000000)">
                    <g id="Path-23" stroke-linejoin="round">
                        <use fill="#F2F2F2" fill-rule="evenodd" xlink:href="#path-9"></use>
                        <use fill="black" fill-opacity="1" filter="url(#filter-10)" xlink:href="#path-9"></use>
                        <use stroke="#000000" stroke-width="1" xlink:href="#path-9"></use>
                    </g>
                    <g id="Path-24">
                        <use fill="#D8D8D8" fill-rule="evenodd" xlink:href="#path-11"></use>
                        <use fill="black" fill-opacity="1" filter="url(#filter-12)" xlink:href="#path-11"></use>
                        <use stroke="#000000" stroke-width="1" xlink:href="#path-11"></use>
                    </g>
                    <g filter="url(#filter-13)" id="Group">
                        <g transform="translate(41.383057, 32.159799)">
                            <path d="M0,6.48151332 C9.35521546,-2.91601708 14.7136287,-2.09445513 16.0752398,8.94619919" id="Path-27" stroke="#9A9A9A"></path>
                            <path d="M1.98347243,13.1648354 C6.87016276,15.3028779 9.98042145,16.6783426 11.3142485,17.2912293 C12.6480755,17.9041161 14.2350726,18.2105594 16.0752398,18.2105594" id="Path-28" stroke="#9A9A9A"></path>
                            <path d="M6.22092111,13.1648354 C10.3092606,9.03392498 12.6739499,10.4093896 13.3149891,17.2912293" id="Path-29" stroke="#9A9A9A"></path>
                            <line x1="34.4985791" y1="13.980275" x2="48.7334464" y2="13.2050896" id="Path-31" stroke="#9A9A9A"></line>
                            <line x1="35.8692369" y1="0" x2="47.574361" y2="5.30246247" id="Path-32" stroke="#9A9A9A"></line>
                            <path d="M18.1176564,13.2050896 C18.1176564,13.5636947 18.1176564,16.1601494 18.1176564,20.9944538 L23.4071782,33.5161355 L40.1276801,28.414178 L40.1276801,24.8327153 L36.7090003,19.5637579" id="Path-33" stroke="#9A9A9A"></path>
                            <path d="M5.5,14.0658961 C7.5740723,11.7363326 8.996724,10.6612215 9.76795509,10.840563 C10.3357527,10.9725982 11.6772875,11.8001082 12.5210224,13.1095751 C13.3963363,14.4680523 13.7563139,16.3245331 13.3149891,17.2912293 C13.1461286,17.6611082 13.0361368,17.321171 12.5210224,17.2912293 C11.6893288,17.2428861 9.34898805,16.167775 5.5,14.0658961 Z" id="Path-2" stroke="#979797" fill="#D8D8D8"></path>
                        </g>
                    </g>
                </g>
                <path d="" id="Path-38" stroke="#979797"></path>
                <path d="" id="Path-45" stroke="#979797"></path>
                <path d="M57.537381,283 C57.537381,283 60.3737894,376.132538 52,388" id="Path-42" stroke="#000000"></path>
                <path d="M75,283 C75,285.435247 75.4784738,379.625478 84,385" id="Path-43" stroke="#000000"></path>
                <path d="M105,283 C113,338.94648 115.666667,371.94648 113,382" id="Path-44" stroke="#000000"></path>
                <path d="M43.8046835,255.804031 C37.2646811,259.412094 40.8212607,261.106901 42.3129721,263.063451 C43.8046835,265.02 117.38957,266.204023 118.663297,263.063451 C119.512448,260.969736 118.755458,258.549929 116.392327,255.804031 C72.3605662,253.398656 48.1646851,253.398656 43.8046835,255.804031 Z" id="Path-40" stroke="#000000" fill="#B87C3A"></path>
                <path d="M80.5615332,45.7524815 C81.249317,43.4168084 82.4304247,41.8679807 84.1048563,41.1059983 C86.6165038,39.9630247 91.4934254,43.5783533 90.7839052,44.6815611 C90.3108917,45.4170329 86.9034343,45.7740064 80.5615332,45.7524815 Z" id="Path-3" stroke="#000000" fill="#010101"></path>
            </g>
            <ellipse id="Oval-Copy-2" fill="url(#radialGradient-14)" cx="110.5" cy="426" rx="110.5" ry="9"></ellipse>
        </g>
        <g id="basso" transform="translate(370.000000, 221.000000)">
            <ellipse id="Oval" fill="url(#radialGradient-15)" cx="110.5" cy="303.527237" rx="110.5" ry="15.5"></ellipse>
            <g id="Group-6" transform="translate(64.451048, 253.033116)">
                <g id="Group-5" transform="translate(0.000000, 2.000000)">
                    <g id="Path-52">
                        <use fill="#ECC4C5" fill-rule="evenodd" xlink:href="#path-16"></use>
                        <use fill="black" fill-opacity="1" filter="url(#filter-17)" xlink:href="#path-16"></use>
                        <use stroke="#000000" stroke-width="1" xlink:href="#path-16"></use>
                    </g>
                    <path d="M33.6593378,17.7336315 C33.6593378,17.2479653 37.3939757,18.8243092 38.1560035,19.7785071 C38.9180313,20.732705 45.8486093,26.0421768 47.6283961,28.4508282 C49.408183,30.8594796 49.1465473,34.1646212 49.1465473,35.1366058 C49.1465473,36.1085904 50.7285391,38.7275691 51.3001522,38.7275691 C51.8717653,38.7275691 54.1367319,37.746539 54.3872069,37.746539 C54.5187063,37.746539 54.7903594,35.9605447 55.1006735,34.11168 L55.190299,33.5832107 C55.4467218,32.0894686 55.7221459,30.6620698 55.9627289,30.2151387 C56.3401141,29.5140703 57.4746068,28.6195404 59.3662069,27.5315489 C60.9374971,31.1439746 62.1005274,33.3549987 62.8552978,34.1646212 C63.9874533,35.3790549 64,40.3492645 64,40.9597894 C64,41.3025403 60.8913553,42.4783454 57.6625704,43.6331416 L57.0564949,43.8492112 C54.7334025,44.6749356 52.444737,45.4622311 51.3001522,45.8939777 C48.4635726,46.9639585 27.3101158,51.3144541 23.0276304,51.8782983 C21.1634897,52.1237364 16.5589503,51.9632746 11.9529902,51.7037787 L11.2064978,51.6608787 C5.48992761,51.3260663 6.24041881e-14,50.8638198 6.24041881e-14,50.8638198 C6.24041881e-14,50.8638198 0.734351215,36.4199981 9.20669773,36.4199981 C14.8549287,36.4199981 18.4090902,39.1519838 19.8691822,44.6159553 L19.8691822,44.6159553 L26.1989944,43.5110559 C26.0085797,37.7300292 25.7004474,34.614551 25.2745975,34.1646212 C24.8487476,33.7146913 23.0469425,33.1508702 19.8691822,32.4731578 L19.8691822,32.4731578 L17.5701831,30.2151387 C18.1072313,29.5866031 18.5789627,28.9984996 18.9853776,28.4508282 C19.3917924,27.9031568 21.488199,27.9031568 25.2745975,28.4508282 C24.8539139,26.4691645 24.6435721,25.2288787 24.6435721,24.7299709 C24.6435721,24.2310631 26.0779556,23.5543765 28.9467226,22.6999112 L28.9467226,22.6999112 L29.7515568,30.2151387 C30.7796485,30.6184796 31.5432139,30.6184796 32.0422529,30.2151387 C32.7908114,29.6101272 42.49458,37.2054838 42.49458,37.746539 C42.49458,38.1934976 43.356332,37.9020029 44.2452155,37.4820814 L44.525844,37.3459171 C44.6190385,37.2995803 44.7115602,37.2525321 44.8024355,37.2054838 C45.3311163,36.9317735 41.7051573,32.7259149 37.992778,28.5726934 L37.2158879,27.7055363 C33.8558693,23.9629141 30.6582407,20.4922831 30.6582407,20.266633 C30.6582407,19.7748314 33.6593378,18.2192977 33.6593378,17.7336315 Z M29.868326,35.5327769 L30.735598,42.2997905 L36.8226043,40.4934043 L29.868326,35.5327769 Z" id="Combined-Shape" stroke="#000000" fill="#76412A" stroke-linejoin="round"></path>
                </g>
                <g id="Group-5-Copy" transform="translate(39.000000, 0.000000)">
                    <g id="Path-52">
                        <use fill="#ECC4C5" fill-rule="evenodd" xlink:href="#path-18"></use>
                        <use fill="black" fill-opacity="1" filter="url(#filter-19)" xlink:href="#path-18"></use>
                        <use stroke="#000000" stroke-width="1" xlink:href="#path-18"></use>
                    </g>
                    <path d="M35.7630465,19.6961717 C35.7630465,19.1816281 39.7310992,20.8517005 40.5407537,21.8626345 C41.3504082,22.8735686 48.7141473,28.4987387 50.6051709,31.0506072 C52.4961945,33.6024756 52.2182066,37.1041392 52.2182066,38.1339175 C52.2182066,39.1636957 53.8990728,41.9383976 54.5064117,41.9383976 C55.1137506,41.9383976 57.5202776,40.8990359 57.7864073,40.8990359 C58.0525371,40.8990359 58.8589418,34.0339529 59.4603995,32.9198226 C59.8613712,32.1770691 61.0667697,31.2293509 63.0765949,30.0766681 C64.7460907,33.9038866 65.9818104,36.246377 66.7837539,37.1041392 C67.9866691,38.3907825 68,43.6565181 68,44.3033445 C68,44.9501709 57.5202776,48.3973157 54.5064117,49.5309169 C52.9618055,50.1118876 46.3054668,51.6057391 39.5701215,53.0045857 L38.5844813,53.2084998 C32.5100941,54.4603448 26.5712974,55.5947783 24.4668573,55.871062 C22.6054361,56.1154407 18.1723359,55.9799998 13.5831765,55.7346027 L12.4340334,55.6711189 C12.3063002,55.6638453 12.1786019,55.6565042 12.0509904,55.6491014 L11.2867753,55.6039906 C6.71269675,55.3294376 2.38516232,54.9899058 0.719791901,54.8552583 L0.467294032,54.8347604 C0.164600964,54.8100827 7.81597009e-14,54.7962631 7.81597009e-14,54.7962631 C7.81597009e-14,54.7962631 0.0571282048,53.6758343 0.318812534,52.0413263 L0.391815162,51.6036701 C1.17018231,47.1184662 3.42785645,39.4936196 9.78211633,39.4936196 C15.7833618,39.4936196 19.5596583,42.3880477 21.111006,48.176904 L21.111006,48.176904 L27.8364316,47.0063079 C27.634116,40.8815445 27.3067254,37.5808216 26.8542599,37.1041392 C26.4017944,36.6274568 24.4873764,36.0301111 21.111006,35.3121023 L21.111006,35.3121023 L18.6683196,32.9198226 C19.2389332,32.2539146 19.7401479,31.6308428 20.1719637,31.0506072 C20.6037794,30.4703715 22.8312115,30.4703715 26.8542599,31.0506072 C26.4072835,28.9511148 26.1837954,27.6370823 26.1837954,27.1085097 C26.1837954,26.5799372 27.7078279,25.8630152 30.7558928,24.9577437 L30.7558928,24.9577437 L31.6110291,32.9198226 C32.7033765,33.347146 33.5146647,33.347146 34.0448937,32.9198226 C34.8402371,32.2788375 45.1504913,40.3258098 45.1504913,40.8990359 C45.1504913,41.472262 46.4922044,40.8990359 47.6025878,40.3258098 C48.1703974,40.0326829 44.2277252,35.4828381 40.2390858,31.0367146 L39.7073868,30.4448956 L39.7073868,30.4448956 L39.1774946,29.8566027 C35.7441633,26.0491356 32.5743807,22.6107013 32.5743807,22.3797841 C32.5743807,22.1409724 33.244222,21.6654164 33.9698833,21.1707575 L34.3675439,20.9003572 C35.0932052,20.4059466 35.7630465,19.9320043 35.7630465,19.6961717 Z M31.7350964,38.5536447 L32.6565728,45.7230213 L39.1240171,43.8092283 L31.7350964,38.5536447 Z" id="Combined-Shape" stroke="#000000" fill="#76412A" stroke-linejoin="round"></path>
                </g>
            </g>
            <g id="Path-20">
                <use fill="#679FC1" fill-rule="evenodd" xlink:href="#path-20"></use>
                <use fill="black" fill-opacity="1" filter="url(#filter-21)" xlink:href="#path-20"></use>
                <use stroke="#000000" stroke-width="1" xlink:href="#path-20"></use>
            </g>
            <g id="Path-19">
                <use fill="#ECBCB4" fill-rule="evenodd" xlink:href="#path-22"></use>
                <use fill="black" fill-opacity="1" filter="url(#filter-23)" xlink:href="#path-22"></use>
                <use stroke="#000000" stroke-width="1" xlink:href="#path-22"></use>
            </g>
            <path d="M96.9975911,16.1642445 C79.1845406,31.9926009 69.2169626,43.0111687 67.0948571,49.2199478 C64.9727515,55.4287269 63.9116988,66.466139 63.9116988,82.332184 L67.0948571,133.350133 L163.736742,133.350133 C182.691453,105.413699 192.168809,91.4454824 192.168809,91.4454824 C192.168809,91.4454824 194.345939,72.2589271 198.7002,33.8858164 C172.63436,17.7642839 156.885263,10.7803054 151.452909,12.933881 C146.020555,15.0874566 127.868782,16.1642445 96.9975911,16.1642445 Z" id="Path-7" stroke="#141414" fill="#EAC8C2"></path>
            <g id="Path-15" stroke-linejoin="round">
                <use fill="#BFBFBD" fill-rule="evenodd" xlink:href="#path-24"></use>
                <use fill="black" fill-opacity="1" filter="url(#filter-25)" xlink:href="#path-24"></use>
                <use stroke="#000000" stroke-width="1" xlink:href="#path-24"></use>
            </g>
            <ellipse id="Oval" stroke="#000000" fill="#000000" cx="132.451048" cy="91.5331165" rx="3.5" ry="5"></ellipse>
            <g id="Oval-Copy">
                <use fill="#000000" fill-rule="evenodd" xlink:href="#path-26"></use>
                <use fill="black" fill-opacity="1" filter="url(#filter-27)" xlink:href="#path-26"></use>
                <ellipse stroke="#000000" stroke-width="1" stroke-linejoin="square" cx="78.9510477" cy="91.5331165" rx="3" ry="5"></ellipse>
            </g>
            <g id="Path-16">
                <use fill="#7D7E8C" fill-rule="evenodd" xlink:href="#path-28"></use>
                <use fill="black" fill-opacity="1" filter="url(#filter-29)" xlink:href="#path-28"></use>
                <use stroke="#000000" stroke-width="1" xlink:href="#path-28"></use>
            </g>
            <g id="Path-17">
                <use fill="#7D7E8C" fill-rule="evenodd" xlink:href="#path-30"></use>
                <use fill="black" fill-opacity="1" filter="url(#filter-31)" xlink:href="#path-30"></use>
                <use stroke="#000000" stroke-width="1" xlink:href="#path-30"></use>
            </g>
            <g id="Path-18">
                <use fill="#7D7E8C" fill-rule="evenodd" xlink:href="#path-32"></use>
                <use fill="black" fill-opacity="1" filter="url(#filter-33)" xlink:href="#path-32"></use>
                <use stroke="#000000" stroke-width="1" xlink:href="#path-32"></use>
            </g>
            <path d="M93.8449915,214.516223 C87.2500028,225.377995 82.5830324,248.229917 82.5830324,253.487601" id="Path-21" stroke="#000000"></path>
            <path d="M109.443705,215.944488 C116.142638,224.377227 122.11104,243.225088 120.043189,250.658295 C117.975338,258.091503 119.400195,263.649701 121.468046,263.649701" id="Path-22" stroke="#000000"></path>
            <path d="M143.304378,182.173685 C148.382603,223.941455 152.558295,246.769658 155.831454,250.658295" id="Path-50" stroke="#000000"></path>
            <path d="M191.20307,264.901503 C185.388481,257.221371 178.975118,246.64912 178.975118,243.839736" id="Path-51" stroke="#000000"></path>
        </g>
        <g id="Combined-Shape">
            <use fill="black" fill-opacity="1" filter="url(#filter-35)" xlink:href="#path-34"></use>
            <use fill="black" fill-opacity="1" filter="url(#filter-36)" xlink:href="#path-34"></use>
            <path stroke="#979797" stroke-width="2" d="M574,27 C581.731986,27 588.731986,30.1340068 593.79899,35.2010101 C598.865993,40.2680135 602,47.2680135 602,55 L602,55 L602,106 C602,113.731986 598.865993,120.731986 593.79899,125.79899 C588.731986,130.865993 581.731986,134 574,134 L574,134 L417,134 C412.806599,134 408.828402,133.078511 405.257198,131.426318 L405.257198,131.426318 L362.716949,152.554142 C380.603125,138.311785 390.253321,127.042689 391.871777,118.82645 C390.001832,114.510613 389,110.372285 389,106 L389,106 L389,55 C389,47.2680135 392.134007,40.2680135 397.20101,35.2010101 C402.268014,30.1340068 409.268014,27 417,27 L417,27 Z" stroke-linejoin="square"></path>
        </g>
    </g>
</svg>