<svg xmlns="http://www.w3.org/2000/svg" data-name="Layer 1" viewBox="0 0 512 512"><path d="M494.94592,269.65526c-3.94727-39.82618-20.86523-73.01758-47.6377-93.458-11.13745-8.50342-25.375-15.88233-40.407-20.98291a132.75839,132.75839,0,0,0-17.16919-60.69092,57.39731,57.39731,0,0,0,30.04785-7.37891,69.428,69.428,0,0,0,16.22168-12.69824c26.27735-27.791,18.19336-64.06152,17.18555-68.10547a7.50056,7.50056,0,0,0-10.416-4.99707A167.3141,167.3141,0,0,1,395.58069,15.206c-15.40332,2.123-27.64747,1.53418-38.86817.752-31.44043-2.19434-48.22168-6.02344-61.706-9.09961-12.8252-2.92578-22.96973-5.24121-39.04493-4.59961-16.07324-.64551-26.2207,1.67285-39.04492,4.59961-13.4834,3.07617-30.26465,6.90527-61.70508,9.09961-11.22167.78125-23.46582,1.37012-38.86718-.752A167.31081,167.31081,0,0,1,69.153,1.34373a7.49943,7.49943,0,0,0-10.415,4.99414c-1.00976,4.044-9.10547,40.30567,17.1836,68.10742A69.45365,69.45365,0,0,0,92.14416,87.14451a57.39715,57.39715,0,0,0,30.04517,7.37891,132.58944,132.58944,0,0,0-17.21411,62.94141c-.01709,2.12793.04882,4.21.1582,6.26709a155.21382,155.21382,0,0,0-35.374,20.28173c-29.66993,23.09473-48.376,59.86524-52.67286,103.53907A208.48593,208.48593,0,0,0,25.024,366.9951c7.98438,26.66406,21.15528,51.10351,38.08887,70.6748,18.62793,21.53028,42.79883,38.62305,71.84082,50.80176a17.32016,17.32016,0,0,0,6.71192,1.34961,17.686,17.686,0,0,0,12.16308-4.87109,15.76294,15.76294,0,0,0,4.23145-16.92188A242.95025,242.95025,0,0,1,147.024,425.438a182.858,182.858,0,0,0,37.2334,29.334v29.84424a26.72851,26.72851,0,1,0,53.457,0V474.06981a130.85537,130.85537,0,0,0,18.62891,1.33837q3.24169,0,6.55566-.16406,4.39161-.219,8.74122-.73047v10.10254a26.72852,26.72852,0,1,0,53.457,0V456.69725a162.2919,162.2919,0,0,0,30.93042-22.96778,265.27923,265.27923,0,0,1-9.8523,29.78809,15.31085,15.31085,0,0,0,3.68653,17.03613,16.79388,16.79388,0,0,0,11.65039,4.63477,17.87537,17.87537,0,0,0,7.37695-1.61035c29.51074-13.36328,54.38086-31.40918,73.91992-53.6377C480.51623,387.0449,500.49377,325.62693,494.94592,269.65526ZM391.94885,157.58494c.14551,18.1543-4.80664,32.35059-14.71875,42.19629-8.22266,8.166-20.52637,13.85156-34.64551,16.00684-8.38476,1.28125-14.05566.417-20.05664-.499-6.03808-.91992-12.88574-1.96289-22.22949-.72949a72.439,72.439,0,0,0-18.24,4.96338c3.58862-10.15088,6.196-20.227,6.196-28.07861,0-12.80274-3.26123-24.28906-8.66235-32.84473-2.44946-31.99072,14.78369-61.16406,41.96606-70.99121,17.80689-6.4375,34.79883-2.43652,46.01026,2.11865,12.46606,13.02393,18.02466,31.647,19.8833,37.87842A112.85054,112.85054,0,0,1,391.94885,157.58494ZM99.5426,74.09568a54.39093,54.39093,0,0,1-12.72168-9.95605C72.39807,48.88768,71.20178,29.86033,72.00354,18.88279a181.47614,181.47614,0,0,0,42.293,11.18262c16.82031,2.31934,30.47753,1.65918,41.96.85547,32.59863-2.27441,50.00781-6.24707,63.99707-9.43848,12.27539-2.7998,21.14258-4.82226,35.39258-4.22461.21093.00977.41992.00977.63085,0,14.25586-.59765,23.11817,1.42579,35.39356,4.22461,13.98926,3.19141,31.39844,7.16407,63.99707,9.43848,11.48144.80371,25.13867,1.46191,41.96094-.85547a181.47643,181.47643,0,0,0,42.29-11.18164c.79882,10.98047-.39942,30.00977-14.81543,45.25586a54.47168,54.47168,0,0,1-12.72168,9.95605c-11.58106,6.56836-25.73243,7.251-38.82618,1.87208-13.65136-5.60547-34.63867-10.584-57.09667-2.46583-29.231,10.56739-49.15333,38.89551-51.79371,71.64405a24.0929,24.0929,0,0,0-17.4663-.63867c-2.88672-32.43946-22.85425-60.56495-51.73316-71.00538-22.457-8.11523-43.44433-3.14062-57.09668,2.46583C125.278,81.34666,111.12463,80.664,99.5426,74.09568ZM273.25451,191.44432c0,10.209-6.53466,27.49121-13.2207,42.32763-.0227.04883-.04419.09766-.06592.14649-1.64746,3.65185-3.30273,7.15478-4.8706,10.36279-7.95117-16.27051-18.15625-40.0791-18.15625-52.83691,0-19.6084,9.56836-33.27344,18.15625-33.27344C265.79748,158.17088,273.25451,175.706,273.25451,191.44432ZM124.47229,127.60545c1.84912-6.20166,7.418-24.855,19.89062-37.88135,11.21118-4.55468,28.198-8.55078,46.00293-2.11474,26.25684,9.49121,43.39551,37.40869,42.11768,68.24853-6.51612,8.75977-10.54248,21.35987-10.54248,35.58643,0,7.64453,2.47217,17.397,5.9143,27.27441a71.90392,71.90392,0,0,0-16.22973-4.15918c-9.34571-1.2334-16.19043-.19043-22.22949.72949-6.002.916-11.66993,1.7793-20.05762.499-14.11817-2.15528-26.42188-7.84082-34.64453-16.00684-8.88672-8.82666-12.82227-20.249-14.16748-31.44971a7.498,7.498,0,0,0-.106-.97216C118.51184,149.5244,123.02356,132.4619,124.47229,127.60545Zm19.03125,346.46387a2.6375,2.6375,0,0,1-2.748.57031c-26.8916-11.27734-49.19727-27.01758-66.29883-46.78418-31.07031-35.91113-47.333-89.10937-42.4414-138.834,3.88964-39.53907,20.56543-72.62793,46.958-93.17188a137.70371,137.70371,0,0,1,28.30469-16.708,71.61424,71.61424,0,0,0,4.6377,13.6377C98.79016,223.2407,93.05334,270.7158,97.62072,312.50682a209.80713,209.80713,0,0,0,31.89063,90.23193A251.25217,251.25217,0,0,0,143.943,473.09764C144.04162,473.37205,143.89416,473.6992,143.50354,474.06932Zm79.21093,10.54687a11.72851,11.72851,0,1,1-23.457,0v-21.998a144.9448,144.9448,0,0,0,23.457,8.40918Zm87.38282,0a11.72851,11.72851,0,1,1-23.457,0V471.88963a140.79059,140.79059,0,0,0,23.457-7.73486ZM262.151,460.26365c-57.47656,2.84668-97.9375-37.69238-109.15332-50.42578A193.93325,193.93325,0,0,1,112.53283,310.876c-3.78979-34.66553.11353-74.61621,9.5337-102.61719.66918.73682,1.35034,1.46289,2.05712,2.165,10.46094,10.38965,25.71387,17.56055,42.9502,20.19238,10.64941,1.626,18.05176.4961,24.584-.498,5.78125-.88184,10.77442-1.64356,18.001-.6875,9.04492,1.19677,18.05566,4.75732,26.812,10.59033,5.55542,12.29053,10.855,22.07031,12.05322,24.25146a7.4999,7.4999,0,0,0,13.14649,0c1.14062-2.07617,5.99731-11.03711,11.25342-22.49463,9.56494-6.88086,19.427-11.03613,29.34131-12.34716,7.22656-.957,12.21972-.19434,18.001.6875,6.53028.99511,13.93067,2.124,24.583.498,17.2373-2.63183,32.49023-9.80273,42.95117-20.19238.166-.165.31934-.3418.4834-.50879,13.13672,35.86816,18.73315,89.17334,3.44336,138.15527C371.67444,412.30662,319.60217,457.39451,262.151,460.26365Zm169.39258-40.22656c-18.12305,20.61719-41.28516,37.39844-68.8418,49.877a2.16526,2.16526,0,0,1-2.47754-.20605c-.25781-.24609-.23828-.32715-.11719-.63184a272.85746,272.85746,0,0,0,15.98658-57.78076,193.38064,193.38064,0,0,0,29.9519-58.75635c17.68115-56.64111,9.20044-118.84277-7.36621-157.04541a74.065,74.065,0,0,0,7.46387-24.62646,126.551,126.551,0,0,1,32.06152,17.252c23.43164,17.89063,38.28125,47.37207,41.81445,83.01563C485.17053,323.10545,466.59533,380.16111,431.54358,420.03709ZM336.59436,115.3242a35.34693,35.34693,0,1,0,35.47949,35.34668A35.45336,35.45336,0,0,0,336.59436,115.3242Zm0,55.69336a20.34711,20.34711,0,1,1,20.47949-20.34668A20.4371,20.4371,0,0,1,336.59436,171.01756Zm-161.26465,15a35.34693,35.34693,0,1,0-35.47949-35.34668A35.45336,35.45336,0,0,0,175.32971,186.01756Zm0-55.69336a20.34711,20.34711,0,1,1-20.47949,20.34668A20.4371,20.4371,0,0,1,175.32971,130.3242Zm161.26465,11.08691a9.25963,9.25963,0,1,0,9.30371,9.25928A9.28164,9.28164,0,0,0,336.59436,141.41111Zm-161.2649,18.519a9.25963,9.25963,0,1,0-9.30371-9.25977A9.28159,9.28159,0,0,0,175.32946,159.93016ZM212.30822,313.873c.41309.01758.82325.02637,1.2334.02637a28.47988,28.47988,0,0,0,25.60547-16.18457,7.49982,7.49982,0,1,0-13.50586-6.5254,13.32746,13.32746,0,0,1-24.166.0127,7.50046,7.50046,0,1,0-13.51953,6.5A28.41034,28.41034,0,0,0,212.30822,313.873Zm84.81446,0c.41308.01758.82324.02637,1.2334.02637a28.482,28.482,0,0,0,25.60546-16.18457,7.49981,7.49981,0,1,0-13.50585-6.5254,13.32825,13.32825,0,0,1-24.167.0127,7.50046,7.50046,0,1,0-13.51953,6.5A28.41062,28.41062,0,0,0,297.12268,313.873ZM235.65686,380.2949a7.496,7.496,0,0,0-10.01563,3.49024,13.32814,13.32814,0,0,1-24.166.01269,7.50046,7.50046,0,0,0-13.51953,6.5,28.4069,28.4069,0,0,0,24.35253,16.16993c.41309.01757.82325.02636,1.2334.02636a28.48067,28.48067,0,0,0,25.60547-16.18359A7.5,7.5,0,0,0,235.65686,380.2949Zm84.81543,0a7.49957,7.49957,0,0,0-10.0166,3.48926,13.32858,13.32858,0,0,1-24.167.01367,7.50046,7.50046,0,0,0-13.51953,6.5,28.40534,28.40534,0,0,0,24.35352,16.16993c.41308.01757.82324.02636,1.2334.02636a28.483,28.483,0,0,0,25.60546-16.18261A7.501,7.501,0,0,0,320.47229,380.2949Zm-38.918-35.46093a7.49982,7.49982,0,1,0-13.50586-6.52539,13.32783,13.32783,0,0,1-24.166.01367,7.5,7.5,0,0,0-13.51953,6.498,28.40609,28.40609,0,0,0,24.35352,16.17188q.61669.02637,1.23047.02637A28.48381,28.48381,0,0,0,281.55432,344.834Zm-74.42969,0a7.49982,7.49982,0,1,0-13.50586-6.52539,13.32783,13.32783,0,0,1-24.166.01367,7.5,7.5,0,0,0-13.51954,6.498,28.40609,28.40609,0,0,0,24.35352,16.17188q.61669.02637,1.23047.02637A28.4838,28.4838,0,0,0,207.12463,344.834Zm145.36914-10.01563a7.49739,7.49739,0,0,0-10.01562,3.49024,13.32747,13.32747,0,0,1-24.166.01269,7.50046,7.50046,0,0,0-13.51953,6.5,28.41059,28.41059,0,0,0,24.35352,16.1709q.6167.02637,1.22949.02637A28.48418,28.48418,0,0,0,355.984,344.834,7.5,7.5,0,0,0,352.49377,334.81834Z"/></svg>
